<?xml version="1.0" encoding="UTF-8" standalone="no"?>
<!DOCTYPE svg PUBLIC "-//W3C//DTD SVG 1.1//EN"
 "http://www.w3.org/Graphics/SVG/1.1/DTD/svg11.dtd">
<!-- Generated by graphviz version 2.43.0 (0)
 -->
<!-- Title: l4/re/c/video/colors.h Pages: 1 -->
<svg width="165pt" height="207pt"
 viewBox="0.00 0.00 164.50 207.00" xmlns="http://www.w3.org/2000/svg" xmlns:xlink="http://www.w3.org/1999/xlink">
<g id="graph0" class="graph" transform="scale(1 1) rotate(0) translate(4 203)">
<title>l4/re/c/video/colors.h</title>
<polygon fill="white" stroke="transparent" points="-4,4 -4,-203 160.5,-203 160.5,4 -4,4"/>
<!-- Node1 -->
<g id="node1" class="node">
<title>Node1</title>
<g id="a_node1"><a xlink:title=" ">
<polygon fill="#bfbfbf" stroke="black" points="0,-179.5 0,-198.5 118,-198.5 118,-179.5 0,-179.5"/>
<text text-anchor="middle" x="59" y="-186.5" font-family="Helvetica,sans-Serif" font-size="10.00">l4/re/c/video/colors.h</text>
</a>
</g>
</g>
<!-- Node2 -->
<g id="node2" class="node">
<title>Node2</title>
<g id="a_node2"><a xlink:href="goos_8h.html" target="_top" xlink:title=" ">
<polygon fill="white" stroke="black" points="3,-67.5 3,-86.5 115,-86.5 115,-67.5 3,-67.5"/>
<text text-anchor="middle" x="59" y="-74.5" font-family="Helvetica,sans-Serif" font-size="10.00">l4/re/c/video/goos.h</text>
</a>
</g>
</g>
<!-- Node1&#45;&gt;Node2 -->
<g id="edge1" class="edge">
<title>Node1&#45;&gt;Node2</title>
<path fill="none" stroke="midnightblue" d="M47.51,-170.57C40.36,-157.64 33.19,-139.46 37,-123 40.14,-109.44 47.95,-95.26 53.36,-86.52"/>
<polygon fill="midnightblue" stroke="midnightblue" points="44.62,-172.57 52.79,-179.33 50.62,-168.96 44.62,-172.57"/>
</g>
<!-- Node4 -->
<g id="node4" class="node">
<title>Node4</title>
<g id="a_node4"><a xlink:href="view_8h.html" target="_top" xlink:title=" ">
<polygon fill="white" stroke="black" points="45.5,-123.5 45.5,-142.5 156.5,-142.5 156.5,-123.5 45.5,-123.5"/>
<text text-anchor="middle" x="101" y="-130.5" font-family="Helvetica,sans-Serif" font-size="10.00">l4/re/c/video/view.h</text>
</a>
</g>
</g>
<!-- Node1&#45;&gt;Node4 -->
<g id="edge3" class="edge">
<title>Node1&#45;&gt;Node4</title>
<path fill="none" stroke="midnightblue" d="M72.11,-171.14C79.43,-161.74 88.24,-150.4 94.19,-142.75"/>
<polygon fill="midnightblue" stroke="midnightblue" points="69.31,-169.04 65.94,-179.08 74.84,-173.34 69.31,-169.04"/>
</g>
<!-- Node3 -->
<g id="node3" class="node">
<title>Node3</title>
<g id="a_node3"><a xlink:href="goos__fb_8h.html" target="_top" xlink:title="Framebuffer utility functionality.">
<polygon fill="white" stroke="black" points="11.5,-0.5 11.5,-30.5 106.5,-30.5 106.5,-0.5 11.5,-0.5"/>
<text text-anchor="start" x="19.5" y="-18.5" font-family="Helvetica,sans-Serif" font-size="10.00">l4/re/c/util/video</text>
<text text-anchor="middle" x="59" y="-7.5" font-family="Helvetica,sans-Serif" font-size="10.00">/goos_fb.h</text>
</a>
</g>
</g>
<!-- Node2&#45;&gt;Node3 -->
<g id="edge2" class="edge">
<title>Node2&#45;&gt;Node3</title>
<path fill="none" stroke="midnightblue" d="M59,-57.23C59,-48.59 59,-38.5 59,-30.52"/>
<polygon fill="midnightblue" stroke="midnightblue" points="55.5,-57.48 59,-67.48 62.5,-57.48 55.5,-57.48"/>
</g>
<!-- Node4&#45;&gt;Node2 -->
<g id="edge4" class="edge">
<title>Node4&#45;&gt;Node2</title>
<path fill="none" stroke="midnightblue" d="M87.89,-115.14C80.57,-105.74 71.76,-94.4 65.81,-86.75"/>
<polygon fill="midnightblue" stroke="midnightblue" points="85.16,-117.34 94.06,-123.08 90.69,-113.04 85.16,-117.34"/>
</g>
</g>
</svg>
