<?xml version="1.0" encoding="UTF-8" standalone="no"?>
<!DOCTYPE svg PUBLIC "-//W3C//DTD SVG 1.1//EN"
 "http://www.w3.org/Graphics/SVG/1.1/DTD/svg11.dtd">
<!-- Generated by graphviz version 2.43.0 (0)
 -->
<!-- Title: l4/re/dataspace Pages: 1 -->
<svg width="2712pt" height="296pt"
 viewBox="0.00 0.00 2712.46 296.00" xmlns="http://www.w3.org/2000/svg" xmlns:xlink="http://www.w3.org/1999/xlink">
<g id="graph0" class="graph" transform="scale(1 1) rotate(0) translate(4 292)">
<title>l4/re/dataspace</title>
<polygon fill="white" stroke="transparent" points="-4,4 -4,-292 2708.46,-292 2708.46,4 -4,4"/>
<!-- Node1 -->
<g id="node1" class="node">
<title>Node1</title>
<g id="a_node1"><a xlink:title="Dataspace interface.">
<polygon fill="#bfbfbf" stroke="black" points="1863.96,-268.5 1863.96,-287.5 1955.96,-287.5 1955.96,-268.5 1863.96,-268.5"/>
<text text-anchor="middle" x="1909.96" y="-275.5" font-family="Helvetica,sans-Serif" font-size="10.00">l4/re/dataspace</text>
</a>
</g>
</g>
<!-- Node2 -->
<g id="node2" class="node">
<title>Node2</title>
<g id="a_node2"><a xlink:href="client_2virtio-block_source.html" target="_top" xlink:title=" ">
<polygon fill="white" stroke="black" points="1313.46,-0.5 1313.46,-30.5 1406.46,-30.5 1406.46,-0.5 1313.46,-0.5"/>
<text text-anchor="start" x="1321.46" y="-18.5" font-family="Helvetica,sans-Serif" font-size="10.00">l4/l4virtio/client</text>
<text text-anchor="middle" x="1359.96" y="-7.5" font-family="Helvetica,sans-Serif" font-size="10.00">/virtio&#45;block</text>
</a>
</g>
</g>
<!-- Node1&#45;&gt;Node2 -->
<g id="edge1" class="edge">
<title>Node1&#45;&gt;Node2</title>
<path fill="none" stroke="midnightblue" d="M1904.75,-258.61C1902.65,-250.51 1900.38,-240.84 1898.96,-232 1887.3,-159.37 1937.53,-119.46 1885.96,-67 1852.68,-33.14 1529.31,-21.02 1406.74,-17.62"/>
<polygon fill="midnightblue" stroke="midnightblue" points="1901.43,-259.73 1907.43,-268.46 1908.18,-257.89 1901.43,-259.73"/>
</g>
<!-- Node3 -->
<g id="node3" class="node">
<title>Node3</title>
<g id="a_node3"><a xlink:href="l4virtio_source.html" target="_top" xlink:title=" ">
<polygon fill="white" stroke="black" points="822.46,-140 822.46,-159 923.46,-159 923.46,-140 822.46,-140"/>
<text text-anchor="middle" x="872.96" y="-147" font-family="Helvetica,sans-Serif" font-size="10.00">l4/l4virtio/l4virtio</text>
</a>
</g>
</g>
<!-- Node1&#45;&gt;Node3 -->
<g id="edge2" class="edge">
<title>Node1&#45;&gt;Node3</title>
<path fill="none" stroke="midnightblue" d="M1853.32,-275.3C1742.19,-271.45 1487.9,-260.11 1275.96,-232 1137.97,-213.7 976.37,-175.99 907.2,-159.06"/>
<polygon fill="midnightblue" stroke="midnightblue" points="1853.51,-278.81 1863.63,-275.65 1853.75,-271.81 1853.51,-278.81"/>
</g>
<!-- Node4 -->
<g id="node4" class="node">
<title>Node4</title>
<g id="a_node4"><a xlink:href="server_2l4virtio_source.html" target="_top" xlink:title=" ">
<polygon fill="white" stroke="black" points="745.46,-67.5 745.46,-97.5 842.46,-97.5 842.46,-67.5 745.46,-67.5"/>
<text text-anchor="start" x="753.46" y="-85.5" font-family="Helvetica,sans-Serif" font-size="10.00">l4/l4virtio/server</text>
<text text-anchor="middle" x="793.96" y="-74.5" font-family="Helvetica,sans-Serif" font-size="10.00">/l4virtio</text>
</a>
</g>
</g>
<!-- Node1&#45;&gt;Node4 -->
<g id="edge6" class="edge">
<title>Node1&#45;&gt;Node4</title>
<path fill="none" stroke="midnightblue" d="M1853.38,-277.33C1720.35,-277.35 1377.6,-273.04 1094.96,-232 967.47,-213.49 903.86,-256.28 812.96,-165 795.12,-147.09 792.75,-115.87 793.07,-97.72"/>
<polygon fill="midnightblue" stroke="midnightblue" points="1853.72,-280.83 1863.72,-277.32 1853.72,-273.83 1853.72,-280.83"/>
</g>
<!-- Node6 -->
<g id="node6" class="node">
<title>Node6</title>
<g id="a_node6"><a xlink:href="ns__fs__impl_8h_source.html" target="_top" xlink:title=" ">
<polygon fill="white" stroke="black" points="430.46,-0.5 430.46,-30.5 537.46,-30.5 537.46,-0.5 430.46,-0.5"/>
<text text-anchor="start" x="438.46" y="-18.5" font-family="Helvetica,sans-Serif" font-size="10.00">l4/l4re_vfs/impl/ns</text>
<text text-anchor="middle" x="483.96" y="-7.5" font-family="Helvetica,sans-Serif" font-size="10.00">_fs_impl.h</text>
</a>
</g>
</g>
<!-- Node1&#45;&gt;Node6 -->
<g id="edge7" class="edge">
<title>Node1&#45;&gt;Node6</title>
<path fill="none" stroke="midnightblue" d="M1853.71,-275.92C1649.07,-271.83 951.03,-256.22 853.96,-232 720.1,-198.61 688.51,-174.88 573.96,-98 558.12,-87.37 519.69,-51.03 498.53,-30.65"/>
<polygon fill="midnightblue" stroke="midnightblue" points="1853.87,-279.43 1863.93,-276.13 1854.01,-272.43 1853.87,-279.43"/>
</g>
<!-- Node7 -->
<g id="node7" class="node">
<title>Node7</title>
<g id="a_node7"><a xlink:href="vfs__impl_8h_source.html" target="_top" xlink:title=" ">
<polygon fill="white" stroke="black" points="175.96,-0.5 175.96,-30.5 285.96,-30.5 285.96,-0.5 175.96,-0.5"/>
<text text-anchor="start" x="183.96" y="-18.5" font-family="Helvetica,sans-Serif" font-size="10.00">l4/l4re_vfs/impl/vfs</text>
<text text-anchor="middle" x="230.96" y="-7.5" font-family="Helvetica,sans-Serif" font-size="10.00">_impl.h</text>
</a>
</g>
</g>
<!-- Node1&#45;&gt;Node7 -->
<g id="edge8" class="edge">
<title>Node1&#45;&gt;Node7</title>
<path fill="none" stroke="midnightblue" d="M1853.57,-276.89C1609.23,-276.18 640.76,-270.91 338.96,-232 208.19,-215.14 155.61,-243.88 49.96,-165 12.53,-137.05 -17.13,-103.56 11.96,-67 32.06,-41.73 117.7,-28.03 175.74,-21.5"/>
<polygon fill="midnightblue" stroke="midnightblue" points="1853.64,-280.39 1863.64,-276.92 1853.65,-273.39 1853.64,-280.39"/>
</g>
<!-- Node8 -->
<g id="node8" class="node">
<title>Node8</title>
<g id="a_node8"><a xlink:href="vfs_8h_source.html" target="_top" xlink:title=" ">
<polygon fill="white" stroke="black" points="348.46,-207 348.46,-226 443.46,-226 443.46,-207 348.46,-207"/>
<text text-anchor="middle" x="395.96" y="-214" font-family="Helvetica,sans-Serif" font-size="10.00">l4/l4re_vfs/vfs.h</text>
</a>
</g>
</g>
<!-- Node1&#45;&gt;Node8 -->
<g id="edge9" class="edge">
<title>Node1&#45;&gt;Node8</title>
<path fill="none" stroke="midnightblue" d="M1853.68,-276.5C1666.79,-274.54 1049.8,-265.77 540.96,-232 508.4,-229.84 471.83,-226.17 443.57,-223.07"/>
<polygon fill="midnightblue" stroke="midnightblue" points="1853.78,-280 1863.81,-276.6 1853.85,-273 1853.78,-280"/>
</g>
<!-- Node17 -->
<g id="node17" class="node">
<title>Node17</title>
<g id="a_node17"><a xlink:href="dma__space.html" target="_top" xlink:title=" ">
<polygon fill="white" stroke="black" points="2033.46,-207 2033.46,-226 2130.46,-226 2130.46,-207 2033.46,-207"/>
<text text-anchor="middle" x="2081.96" y="-214" font-family="Helvetica,sans-Serif" font-size="10.00">l4/re/dma_space</text>
</a>
</g>
</g>
<!-- Node1&#45;&gt;Node17 -->
<g id="edge23" class="edge">
<title>Node1&#45;&gt;Node17</title>
<path fill="none" stroke="midnightblue" d="M1944.41,-265.08C1977.84,-253.52 2027.75,-236.25 2057.36,-226.01"/>
<polygon fill="midnightblue" stroke="midnightblue" points="1942.91,-261.9 1934.6,-268.48 1945.2,-268.51 1942.91,-261.9"/>
</g>
<!-- Node18 -->
<g id="node18" class="node">
<title>Node18</title>
<g id="a_node18"><a xlink:href="vbus_source.html" target="_top" xlink:title=" ">
<polygon fill="white" stroke="black" points="1972.96,-140 1972.96,-159 2050.96,-159 2050.96,-140 1972.96,-140"/>
<text text-anchor="middle" x="2011.96" y="-147" font-family="Helvetica,sans-Serif" font-size="10.00">l4/vbus/vbus</text>
</a>
</g>
</g>
<!-- Node1&#45;&gt;Node18 -->
<g id="edge68" class="edge">
<title>Node1&#45;&gt;Node18</title>
<path fill="none" stroke="midnightblue" d="M1942.42,-264.29C1957.54,-256.9 1974.65,-246.2 1985.96,-232 2003.72,-209.69 2009.47,-175 2011.23,-159.05"/>
<polygon fill="midnightblue" stroke="midnightblue" points="1940.95,-261.11 1933.33,-268.46 1943.87,-267.47 1940.95,-261.11"/>
</g>
<!-- Node22 -->
<g id="node22" class="node">
<title>Node22</title>
<g id="a_node22"><a xlink:href="event_source.html" target="_top" xlink:title=" ">
<polygon fill="white" stroke="black" points="1907.46,-207 1907.46,-226 1976.46,-226 1976.46,-207 1907.46,-207"/>
<text text-anchor="middle" x="1941.96" y="-214" font-family="Helvetica,sans-Serif" font-size="10.00">l4/re/event</text>
</a>
</g>
</g>
<!-- Node1&#45;&gt;Node22 -->
<g id="edge28" class="edge">
<title>Node1&#45;&gt;Node22</title>
<path fill="none" stroke="midnightblue" d="M1919.46,-259.33C1925.38,-248.33 1932.73,-234.66 1937.38,-226.01"/>
<polygon fill="midnightblue" stroke="midnightblue" points="1916.2,-258.01 1914.54,-268.48 1922.36,-261.33 1916.2,-258.01"/>
</g>
<!-- Node27 -->
<g id="node27" class="node">
<title>Node27</title>
<g id="a_node27"><a xlink:href="dataspace__impl_8h.html" target="_top" xlink:title="Dataspace client stub implementation.">
<polygon fill="white" stroke="black" points="2300.96,-201.5 2300.96,-231.5 2416.96,-231.5 2416.96,-201.5 2300.96,-201.5"/>
<text text-anchor="start" x="2308.96" y="-219.5" font-family="Helvetica,sans-Serif" font-size="10.00">l4/re/impl/dataspace</text>
<text text-anchor="middle" x="2358.96" y="-208.5" font-family="Helvetica,sans-Serif" font-size="10.00">_impl.h</text>
</a>
</g>
</g>
<!-- Node1&#45;&gt;Node27 -->
<g id="edge34" class="edge">
<title>Node1&#45;&gt;Node27</title>
<path fill="none" stroke="midnightblue" d="M1966.15,-272.08C2040.85,-265.15 2176.83,-251.19 2291.96,-232 2294.89,-231.51 2297.9,-230.98 2300.92,-230.42"/>
<polygon fill="midnightblue" stroke="midnightblue" points="1965.66,-268.61 1956.03,-273.01 1966.3,-275.58 1965.66,-268.61"/>
</g>
<!-- Node28 -->
<g id="node28" class="node">
<title>Node28</title>
<g id="a_node28"><a xlink:href="mem__alloc__impl_8h.html" target="_top" xlink:title="Memory allocator client stub implementation.">
<polygon fill="white" stroke="black" points="2434.96,-201.5 2434.96,-231.5 2554.96,-231.5 2554.96,-201.5 2434.96,-201.5"/>
<text text-anchor="start" x="2442.96" y="-219.5" font-family="Helvetica,sans-Serif" font-size="10.00">l4/re/impl/mem_alloc</text>
<text text-anchor="middle" x="2494.96" y="-208.5" font-family="Helvetica,sans-Serif" font-size="10.00">_impl.h</text>
</a>
</g>
</g>
<!-- Node1&#45;&gt;Node28 -->
<g id="edge35" class="edge">
<title>Node1&#45;&gt;Node28</title>
<path fill="none" stroke="midnightblue" d="M1966.34,-274.3C2061.49,-269.26 2259.84,-256.61 2425.96,-232 2428.87,-231.57 2431.83,-231.09 2434.83,-230.58"/>
<polygon fill="midnightblue" stroke="midnightblue" points="1965.89,-270.82 1956.08,-274.84 1966.25,-277.81 1965.89,-270.82"/>
</g>
<!-- Node29 -->
<g id="node29" class="node">
<title>Node29</title>
<g id="a_node29"><a xlink:href="rm__impl_8h.html" target="_top" xlink:title="Region map client stub implementation.">
<polygon fill="white" stroke="black" points="1565.96,-140 1565.96,-159 1681.96,-159 1681.96,-140 1565.96,-140"/>
<text text-anchor="middle" x="1623.96" y="-147" font-family="Helvetica,sans-Serif" font-size="10.00">l4/re/impl/rm_impl.h</text>
</a>
</g>
</g>
<!-- Node1&#45;&gt;Node29 -->
<g id="edge36" class="edge">
<title>Node1&#45;&gt;Node29</title>
<path fill="none" stroke="midnightblue" d="M1880.93,-264.16C1822.62,-238.37 1692.62,-180.87 1643.38,-159.09"/>
<polygon fill="midnightblue" stroke="midnightblue" points="1879.74,-267.46 1890.3,-268.31 1882.57,-261.06 1879.74,-267.46"/>
</g>
<!-- Node30 -->
<g id="node30" class="node">
<title>Node30</title>
<g id="a_node30"><a xlink:href="rm.html" target="_top" xlink:title="Region mapper interface.">
<polygon fill="white" stroke="black" points="1285.46,-207 1285.46,-226 1340.46,-226 1340.46,-207 1285.46,-207"/>
<text text-anchor="middle" x="1312.96" y="-214" font-family="Helvetica,sans-Serif" font-size="10.00">l4/re/rm</text>
</a>
</g>
</g>
<!-- Node1&#45;&gt;Node30 -->
<g id="edge37" class="edge">
<title>Node1&#45;&gt;Node30</title>
<path fill="none" stroke="midnightblue" d="M1853.49,-271.37C1728.6,-258.92 1432.74,-229.44 1340.75,-220.27"/>
<polygon fill="midnightblue" stroke="midnightblue" points="1853.31,-274.87 1863.61,-272.38 1854.01,-267.91 1853.31,-274.87"/>
</g>
<!-- Node39 -->
<g id="node39" class="node">
<title>Node39</title>
<g id="a_node39"><a xlink:href="dataspace__svr_source.html" target="_top" xlink:title=" ">
<polygon fill="white" stroke="black" points="2573.46,-207 2573.46,-226 2704.46,-226 2704.46,-207 2573.46,-207"/>
<text text-anchor="middle" x="2638.96" y="-214" font-family="Helvetica,sans-Serif" font-size="10.00">l4/re/util/dataspace_svr</text>
</a>
</g>
</g>
<!-- Node1&#45;&gt;Node39 -->
<g id="edge61" class="edge">
<title>Node1&#45;&gt;Node39</title>
<path fill="none" stroke="midnightblue" d="M1966.33,-275.44C2079.86,-271.79 2343.99,-260.72 2563.96,-232 2575.66,-230.47 2588.29,-228.25 2599.79,-226.01"/>
<polygon fill="midnightblue" stroke="midnightblue" points="1966.02,-271.95 1956.14,-275.76 1966.25,-278.95 1966.02,-271.95"/>
</g>
<!-- Node40 -->
<g id="node40" class="node">
<title>Node40</title>
<g id="a_node40"><a xlink:href="goos__svr_source.html" target="_top" xlink:title=" ">
<polygon fill="white" stroke="black" points="2166.96,-140 2166.96,-159 2300.96,-159 2300.96,-140 2166.96,-140"/>
<text text-anchor="middle" x="2233.96" y="-147" font-family="Helvetica,sans-Serif" font-size="10.00">l4/re/util/video/goos_svr</text>
</a>
</g>
</g>
<!-- Node1&#45;&gt;Node40 -->
<g id="edge62" class="edge">
<title>Node1&#45;&gt;Node40</title>
<path fill="none" stroke="midnightblue" d="M1966.5,-274.08C2014.71,-269.74 2084.77,-258.92 2139.96,-232 2149.76,-227.22 2202.62,-179.24 2224.49,-159.21"/>
<polygon fill="midnightblue" stroke="midnightblue" points="1965.93,-270.62 1956.25,-274.94 1966.51,-277.6 1965.93,-270.62"/>
</g>
<!-- Node41 -->
<g id="node41" class="node">
<title>Node41</title>
<g id="a_node41"><a xlink:href="goos_source.html" target="_top" xlink:title=" ">
<polygon fill="white" stroke="black" points="2187.46,-207 2187.46,-226 2282.46,-226 2282.46,-207 2187.46,-207"/>
<text text-anchor="middle" x="2234.96" y="-214" font-family="Helvetica,sans-Serif" font-size="10.00">l4/re/video/goos</text>
</a>
</g>
</g>
<!-- Node1&#45;&gt;Node41 -->
<g id="edge63" class="edge">
<title>Node1&#45;&gt;Node41</title>
<path fill="none" stroke="midnightblue" d="M1966.15,-268.39C2019.52,-259.98 2101.94,-246.37 2172.96,-232 2181.74,-230.22 2191.17,-228.12 2199.96,-226.07"/>
<polygon fill="midnightblue" stroke="midnightblue" points="1965.54,-264.94 1956.2,-269.95 1966.62,-271.86 1965.54,-264.94"/>
</g>
<!-- Node3&#45;&gt;Node2 -->
<g id="edge3" class="edge">
<title>Node3&#45;&gt;Node2</title>
<path fill="none" stroke="midnightblue" d="M821.16,-137.54C770.49,-124.58 705.09,-100.47 735.96,-67 774.88,-24.81 1174.48,-17.86 1312.99,-16.72"/>
<polygon fill="midnightblue" stroke="midnightblue" points="820.52,-140.99 831.07,-139.98 822.2,-134.19 820.52,-140.99"/>
</g>
<!-- Node3&#45;&gt;Node4 -->
<g id="edge4" class="edge">
<title>Node3&#45;&gt;Node4</title>
<path fill="none" stroke="midnightblue" d="M854.41,-133.24C841.3,-122.45 823.86,-108.1 811.08,-97.59"/>
<polygon fill="midnightblue" stroke="midnightblue" points="852.36,-136.08 862.31,-139.73 856.81,-130.68 852.36,-136.08"/>
</g>
<!-- Node5 -->
<g id="node5" class="node">
<title>Node5</title>
<g id="a_node5"><a xlink:href="server_2virtio-block_source.html" target="_top" xlink:title=" ">
<polygon fill="white" stroke="black" points="815.46,-0.5 815.46,-30.5 912.46,-30.5 912.46,-0.5 815.46,-0.5"/>
<text text-anchor="start" x="823.46" y="-18.5" font-family="Helvetica,sans-Serif" font-size="10.00">l4/l4virtio/server</text>
<text text-anchor="middle" x="863.96" y="-7.5" font-family="Helvetica,sans-Serif" font-size="10.00">/virtio&#45;block</text>
</a>
</g>
</g>
<!-- Node4&#45;&gt;Node5 -->
<g id="edge5" class="edge">
<title>Node4&#45;&gt;Node5</title>
<path fill="none" stroke="midnightblue" d="M816.78,-60.31C827.28,-50.56 839.45,-39.26 848.8,-30.58"/>
<polygon fill="midnightblue" stroke="midnightblue" points="814.1,-58.03 809.15,-67.4 818.86,-63.16 814.1,-58.03"/>
</g>
<!-- Node9 -->
<g id="node9" class="node">
<title>Node9</title>
<g id="a_node9"><a xlink:href="backend_source.html" target="_top" xlink:title=" ">
<polygon fill="white" stroke="black" points="340.46,-140 340.46,-159 451.46,-159 451.46,-140 340.46,-140"/>
<text text-anchor="middle" x="395.96" y="-147" font-family="Helvetica,sans-Serif" font-size="10.00">l4/l4re_vfs/backend</text>
</a>
</g>
</g>
<!-- Node8&#45;&gt;Node9 -->
<g id="edge10" class="edge">
<title>Node8&#45;&gt;Node9</title>
<path fill="none" stroke="midnightblue" d="M395.96,-196.54C395.96,-184.17 395.96,-168.62 395.96,-159.13"/>
<polygon fill="midnightblue" stroke="midnightblue" points="392.46,-196.73 395.96,-206.73 399.46,-196.73 392.46,-196.73"/>
</g>
<!-- Node15 -->
<g id="node15" class="node">
<title>Node15</title>
<g id="a_node15"><a xlink:href="fd__store_8h_source.html" target="_top" xlink:title=" ">
<polygon fill="white" stroke="black" points="59.46,-134.5 59.46,-164.5 164.46,-164.5 164.46,-134.5 59.46,-134.5"/>
<text text-anchor="start" x="67.46" y="-152.5" font-family="Helvetica,sans-Serif" font-size="10.00">l4/l4re_vfs/impl/fd</text>
<text text-anchor="middle" x="111.96" y="-141.5" font-family="Helvetica,sans-Serif" font-size="10.00">_store.h</text>
</a>
</g>
</g>
<!-- Node8&#45;&gt;Node15 -->
<g id="edge20" class="edge">
<title>Node8&#45;&gt;Node15</title>
<path fill="none" stroke="midnightblue" d="M348.49,-204.63C297.71,-193.01 217.4,-174.63 164.7,-162.57"/>
<polygon fill="midnightblue" stroke="midnightblue" points="348.01,-208.12 358.54,-206.94 349.57,-201.29 348.01,-208.12"/>
</g>
<!-- Node9&#45;&gt;Node7 -->
<g id="edge19" class="edge">
<title>Node9&#45;&gt;Node7</title>
<path fill="none" stroke="midnightblue" d="M330.3,-140.18C301.89,-133.32 270.52,-120.81 249.96,-98 233.13,-79.33 230.37,-48.67 230.35,-30.76"/>
<polygon fill="midnightblue" stroke="midnightblue" points="329.67,-143.63 340.2,-142.38 331.19,-136.79 329.67,-143.63"/>
</g>
<!-- Node10 -->
<g id="node10" class="node">
<title>Node10</title>
<g id="a_node10"><a xlink:href="ns__fs_8h_source.html" target="_top" xlink:title=" ">
<polygon fill="white" stroke="black" points="258.96,-73 258.96,-92 388.96,-92 388.96,-73 258.96,-73"/>
<text text-anchor="middle" x="323.96" y="-80" font-family="Helvetica,sans-Serif" font-size="10.00">l4/l4re_vfs/impl/ns_fs.h</text>
</a>
</g>
</g>
<!-- Node9&#45;&gt;Node10 -->
<g id="edge11" class="edge">
<title>Node9&#45;&gt;Node10</title>
<path fill="none" stroke="midnightblue" d="M378.63,-132.86C364.48,-120.08 345,-102.49 333.52,-92.13"/>
<polygon fill="midnightblue" stroke="midnightblue" points="376.48,-135.63 386.25,-139.73 381.17,-130.43 376.48,-135.63"/>
</g>
<!-- Node11 -->
<g id="node11" class="node">
<title>Node11</title>
<g id="a_node11"><a xlink:href="ro__file_8h_source.html" target="_top" xlink:title=" ">
<polygon fill="white" stroke="black" points="583.46,-67.5 583.46,-97.5 688.46,-97.5 688.46,-67.5 583.46,-67.5"/>
<text text-anchor="start" x="591.46" y="-85.5" font-family="Helvetica,sans-Serif" font-size="10.00">l4/l4re_vfs/impl/ro</text>
<text text-anchor="middle" x="635.96" y="-74.5" font-family="Helvetica,sans-Serif" font-size="10.00">_file.h</text>
</a>
</g>
</g>
<!-- Node9&#45;&gt;Node11 -->
<g id="edge14" class="edge">
<title>Node9&#45;&gt;Node11</title>
<path fill="none" stroke="midnightblue" d="M437.69,-137.2C478.37,-126.18 540.35,-109.39 584.16,-97.53"/>
<polygon fill="midnightblue" stroke="midnightblue" points="436.57,-133.88 427.83,-139.87 438.4,-140.63 436.57,-133.88"/>
</g>
<!-- Node13 -->
<g id="node13" class="node">
<title>Node13</title>
<g id="a_node13"><a xlink:href="vcon__stream_8h_source.html" target="_top" xlink:title=" ">
<polygon fill="white" stroke="black" points="407.46,-67.5 407.46,-97.5 526.46,-97.5 526.46,-67.5 407.46,-67.5"/>
<text text-anchor="start" x="415.46" y="-85.5" font-family="Helvetica,sans-Serif" font-size="10.00">l4/l4re_vfs/impl/vcon</text>
<text text-anchor="middle" x="466.96" y="-74.5" font-family="Helvetica,sans-Serif" font-size="10.00">_stream.h</text>
</a>
</g>
</g>
<!-- Node9&#45;&gt;Node13 -->
<g id="edge16" class="edge">
<title>Node9&#45;&gt;Node13</title>
<path fill="none" stroke="midnightblue" d="M412.97,-132.93C424.71,-122.18 440.2,-108 451.57,-97.59"/>
<polygon fill="midnightblue" stroke="midnightblue" points="410.55,-130.4 405.54,-139.73 415.27,-135.56 410.55,-130.4"/>
</g>
<!-- Node10&#45;&gt;Node6 -->
<g id="edge12" class="edge">
<title>Node10&#45;&gt;Node6</title>
<path fill="none" stroke="midnightblue" d="M354.59,-69.06C381.69,-58.05 421.21,-41.99 449.43,-30.53"/>
<polygon fill="midnightblue" stroke="midnightblue" points="353.15,-65.86 345.21,-72.87 355.79,-72.35 353.15,-65.86"/>
</g>
<!-- Node10&#45;&gt;Node7 -->
<g id="edge13" class="edge">
<title>Node10&#45;&gt;Node7</title>
<path fill="none" stroke="midnightblue" d="M303,-66.85C287.47,-56 266.45,-41.3 251.12,-30.59"/>
<polygon fill="midnightblue" stroke="midnightblue" points="301.22,-69.87 311.42,-72.73 305.23,-64.14 301.22,-69.87"/>
</g>
<!-- Node12 -->
<g id="node12" class="node">
<title>Node12</title>
<g id="a_node12"><a xlink:href="ro__file__impl_8h_source.html" target="_top" xlink:title=" ">
<polygon fill="white" stroke="black" points="692.46,-0.5 692.46,-30.5 797.46,-30.5 797.46,-0.5 692.46,-0.5"/>
<text text-anchor="start" x="700.46" y="-18.5" font-family="Helvetica,sans-Serif" font-size="10.00">l4/l4re_vfs/impl/ro</text>
<text text-anchor="middle" x="744.96" y="-7.5" font-family="Helvetica,sans-Serif" font-size="10.00">_file_impl.h</text>
</a>
</g>
</g>
<!-- Node11&#45;&gt;Node12 -->
<g id="edge15" class="edge">
<title>Node11&#45;&gt;Node12</title>
<path fill="none" stroke="midnightblue" d="M668.63,-62.02C685.6,-51.9 705.94,-39.77 721.35,-30.58"/>
<polygon fill="midnightblue" stroke="midnightblue" points="666.41,-59.27 659.61,-67.4 669.99,-65.28 666.41,-59.27"/>
</g>
<!-- Node13&#45;&gt;Node7 -->
<g id="edge18" class="edge">
<title>Node13&#45;&gt;Node7</title>
<path fill="none" stroke="midnightblue" d="M406.02,-64.71C367.61,-54.14 318.59,-40.63 282.19,-30.61"/>
<polygon fill="midnightblue" stroke="midnightblue" points="405.47,-68.19 416.04,-67.48 407.33,-61.45 405.47,-68.19"/>
</g>
<!-- Node14 -->
<g id="node14" class="node">
<title>Node14</title>
<g id="a_node14"><a xlink:href="vcon__stream__impl_8h_source.html" target="_top" xlink:title=" ">
<polygon fill="white" stroke="black" points="555.46,-0.5 555.46,-30.5 674.46,-30.5 674.46,-0.5 555.46,-0.5"/>
<text text-anchor="start" x="563.46" y="-18.5" font-family="Helvetica,sans-Serif" font-size="10.00">l4/l4re_vfs/impl/vcon</text>
<text text-anchor="middle" x="614.96" y="-7.5" font-family="Helvetica,sans-Serif" font-size="10.00">_stream_impl.h</text>
</a>
</g>
</g>
<!-- Node13&#45;&gt;Node14 -->
<g id="edge17" class="edge">
<title>Node13&#45;&gt;Node14</title>
<path fill="none" stroke="midnightblue" d="M508.47,-63.27C532.04,-52.92 561.1,-40.15 582.91,-30.58"/>
<polygon fill="midnightblue" stroke="midnightblue" points="506.82,-60.17 499.07,-67.4 509.64,-66.58 506.82,-60.17"/>
</g>
<!-- Node15&#45;&gt;Node7 -->
<g id="edge22" class="edge">
<title>Node15&#45;&gt;Node7</title>
<path fill="none" stroke="midnightblue" d="M129.21,-126.17C142.38,-109.46 161.21,-86.28 178.96,-67 190.72,-54.22 204.91,-40.55 215.5,-30.65"/>
<polygon fill="midnightblue" stroke="midnightblue" points="126.29,-124.22 122.88,-134.26 131.8,-128.54 126.29,-124.22"/>
</g>
<!-- Node16 -->
<g id="node16" class="node">
<title>Node16</title>
<g id="a_node16"><a xlink:href="fd__store__impl_8h_source.html" target="_top" xlink:title=" ">
<polygon fill="white" stroke="black" points="21.46,-67.5 21.46,-97.5 126.46,-97.5 126.46,-67.5 21.46,-67.5"/>
<text text-anchor="start" x="29.46" y="-85.5" font-family="Helvetica,sans-Serif" font-size="10.00">l4/l4re_vfs/impl/fd</text>
<text text-anchor="middle" x="73.96" y="-74.5" font-family="Helvetica,sans-Serif" font-size="10.00">_store_impl.h</text>
</a>
</g>
</g>
<!-- Node15&#45;&gt;Node16 -->
<g id="edge21" class="edge">
<title>Node15&#45;&gt;Node16</title>
<path fill="none" stroke="midnightblue" d="M98.56,-125.58C93.1,-116.24 86.97,-105.75 82.19,-97.58"/>
<polygon fill="midnightblue" stroke="midnightblue" points="95.65,-127.53 103.71,-134.4 101.69,-124 95.65,-127.53"/>
</g>
<!-- Node17&#45;&gt;Node18 -->
<g id="edge24" class="edge">
<title>Node17&#45;&gt;Node18</title>
<path fill="none" stroke="midnightblue" d="M2065.11,-199.86C2051.35,-187.08 2032.41,-169.49 2021.25,-159.13"/>
<polygon fill="midnightblue" stroke="midnightblue" points="2062.81,-202.49 2072.52,-206.73 2067.57,-197.36 2062.81,-202.49"/>
</g>
<!-- Node19 -->
<g id="node19" class="node">
<title>Node19</title>
<g id="a_node19"><a xlink:href="vbus__generic_source.html" target="_top" xlink:title=" ">
<polygon fill="white" stroke="black" points="1971.46,-73 1971.46,-92 2090.46,-92 2090.46,-73 1971.46,-73"/>
<text text-anchor="middle" x="2030.96" y="-80" font-family="Helvetica,sans-Serif" font-size="10.00">l4/vbus/vbus_generic</text>
</a>
</g>
</g>
<!-- Node18&#45;&gt;Node19 -->
<g id="edge25" class="edge">
<title>Node18&#45;&gt;Node19</title>
<path fill="none" stroke="midnightblue" d="M2017.39,-129.91C2021.02,-117.49 2025.63,-101.72 2028.44,-92.13"/>
<polygon fill="midnightblue" stroke="midnightblue" points="2013.97,-129.15 2014.52,-139.73 2020.69,-131.12 2013.97,-129.15"/>
</g>
<!-- Node20 -->
<g id="node20" class="node">
<title>Node20</title>
<g id="a_node20"><a xlink:href="vbus__gpio_source.html" target="_top" xlink:title=" ">
<polygon fill="white" stroke="black" points="2108.96,-73 2108.96,-92 2212.96,-92 2212.96,-73 2108.96,-73"/>
<text text-anchor="middle" x="2160.96" y="-80" font-family="Helvetica,sans-Serif" font-size="10.00">l4/vbus/vbus_gpio</text>
</a>
</g>
</g>
<!-- Node18&#45;&gt;Node20 -->
<g id="edge26" class="edge">
<title>Node18&#45;&gt;Node20</title>
<path fill="none" stroke="midnightblue" d="M2041.12,-135.78C2070.62,-122.91 2115.45,-103.35 2141.09,-92.17"/>
<polygon fill="midnightblue" stroke="midnightblue" points="2039.51,-132.66 2031.75,-139.87 2042.31,-139.08 2039.51,-132.66"/>
</g>
<!-- Node21 -->
<g id="node21" class="node">
<title>Node21</title>
<g id="a_node21"><a xlink:href="vbus__pci_source.html" target="_top" xlink:title=" ">
<polygon fill="white" stroke="black" points="2230.96,-73 2230.96,-92 2328.96,-92 2328.96,-73 2230.96,-73"/>
<text text-anchor="middle" x="2279.96" y="-80" font-family="Helvetica,sans-Serif" font-size="10.00">l4/vbus/vbus_pci</text>
</a>
</g>
</g>
<!-- Node18&#45;&gt;Node21 -->
<g id="edge27" class="edge">
<title>Node18&#45;&gt;Node21</title>
<path fill="none" stroke="midnightblue" d="M2049.26,-137.18C2053.2,-136.07 2057.16,-134.99 2060.96,-134 2131.93,-115.59 2150.61,-114.89 2221.96,-98 2229.94,-96.11 2238.52,-94.01 2246.56,-92"/>
<polygon fill="midnightblue" stroke="midnightblue" points="2048.23,-133.83 2039.6,-139.97 2050.17,-140.56 2048.23,-133.83"/>
</g>
<!-- Node22&#45;&gt;Node18 -->
<g id="edge33" class="edge">
<title>Node22&#45;&gt;Node18</title>
<path fill="none" stroke="midnightblue" d="M1958.81,-199.86C1972.57,-187.08 1991.51,-169.49 2002.67,-159.13"/>
<polygon fill="midnightblue" stroke="midnightblue" points="1956.35,-197.36 1951.4,-206.73 1961.11,-202.49 1956.35,-197.36"/>
</g>
<!-- Node23 -->
<g id="node23" class="node">
<title>Node23</title>
<g id="a_node23"><a xlink:href="console_source.html" target="_top" xlink:title=" ">
<polygon fill="white" stroke="black" points="2069.46,-140 2069.46,-159 2148.46,-159 2148.46,-140 2069.46,-140"/>
<text text-anchor="middle" x="2108.96" y="-147" font-family="Helvetica,sans-Serif" font-size="10.00">l4/re/console</text>
</a>
</g>
</g>
<!-- Node22&#45;&gt;Node23 -->
<g id="edge29" class="edge">
<title>Node22&#45;&gt;Node23</title>
<path fill="none" stroke="midnightblue" d="M1973.81,-203.1C2006.97,-190.2 2058.02,-170.33 2086.96,-159.06"/>
<polygon fill="midnightblue" stroke="midnightblue" points="1972.19,-199.98 1964.14,-206.87 1974.72,-206.5 1972.19,-199.98"/>
</g>
<!-- Node24 -->
<g id="node24" class="node">
<title>Node24</title>
<g id="a_node24"><a xlink:href="event__buffer_source.html" target="_top" xlink:title=" ">
<polygon fill="white" stroke="black" points="1754.96,-140 1754.96,-159 1876.96,-159 1876.96,-140 1754.96,-140"/>
<text text-anchor="middle" x="1815.96" y="-147" font-family="Helvetica,sans-Serif" font-size="10.00">l4/re/util/event_buffer</text>
</a>
</g>
</g>
<!-- Node22&#45;&gt;Node24 -->
<g id="edge30" class="edge">
<title>Node22&#45;&gt;Node24</title>
<path fill="none" stroke="midnightblue" d="M1916.32,-202.27C1891.37,-189.4 1854.16,-170.21 1832.76,-159.17"/>
<polygon fill="midnightblue" stroke="midnightblue" points="1914.74,-205.39 1925.23,-206.87 1917.95,-199.17 1914.74,-205.39"/>
</g>
<!-- Node26 -->
<g id="node26" class="node">
<title>Node26</title>
<g id="a_node26"><a xlink:href="event__svr_source.html" target="_top" xlink:title=" ">
<polygon fill="white" stroke="black" points="1778.96,-6 1778.96,-25 1886.96,-25 1886.96,-6 1778.96,-6"/>
<text text-anchor="middle" x="1832.96" y="-13" font-family="Helvetica,sans-Serif" font-size="10.00">l4/re/util/event_svr</text>
</a>
</g>
</g>
<!-- Node22&#45;&gt;Node26 -->
<g id="edge32" class="edge">
<title>Node22&#45;&gt;Node26</title>
<path fill="none" stroke="midnightblue" d="M1943.91,-196.54C1946.02,-166.38 1946.01,-106.82 1918.96,-67 1904.85,-46.23 1879.13,-32.79 1859.49,-25.04"/>
<polygon fill="midnightblue" stroke="midnightblue" points="1940.39,-196.62 1943.02,-206.88 1947.36,-197.22 1940.39,-196.62"/>
</g>
<!-- Node25 -->
<g id="node25" class="node">
<title>Node25</title>
<g id="a_node25"><a xlink:href="util_2event.html" target="_top" xlink:title=" ">
<polygon fill="white" stroke="black" points="1788.96,-73 1788.96,-92 1876.96,-92 1876.96,-73 1788.96,-73"/>
<text text-anchor="middle" x="1832.96" y="-80" font-family="Helvetica,sans-Serif" font-size="10.00">l4/re/util/event</text>
</a>
</g>
</g>
<!-- Node24&#45;&gt;Node25 -->
<g id="edge31" class="edge">
<title>Node24&#45;&gt;Node25</title>
<path fill="none" stroke="midnightblue" d="M1820.82,-129.91C1824.07,-117.49 1828.2,-101.72 1830.7,-92.13"/>
<polygon fill="midnightblue" stroke="midnightblue" points="1817.4,-129.17 1818.25,-139.73 1824.17,-130.94 1817.4,-129.17"/>
</g>
<!-- Node30&#45;&gt;Node4 -->
<g id="edge38" class="edge">
<title>Node30&#45;&gt;Node4</title>
<path fill="none" stroke="midnightblue" d="M1275.34,-210.31C1222.04,-202.56 1121.69,-186.56 1037.96,-165 963.14,-145.74 878.01,-115.29 830.68,-97.57"/>
<polygon fill="midnightblue" stroke="midnightblue" points="1274.96,-213.79 1285.36,-211.75 1275.96,-206.86 1274.96,-213.79"/>
</g>
<!-- Node30&#45;&gt;Node7 -->
<g id="edge39" class="edge">
<title>Node30&#45;&gt;Node7</title>
<path fill="none" stroke="midnightblue" d="M1274.9,-214.74C1105.16,-211.19 421.66,-195.14 330.96,-165 280.19,-148.13 256.15,-145.2 230.96,-98 219.63,-76.78 223.35,-47.8 227.13,-30.73"/>
<polygon fill="midnightblue" stroke="midnightblue" points="1275.03,-218.24 1285.1,-214.95 1275.17,-211.25 1275.03,-218.24"/>
</g>
<!-- Node30&#45;&gt;Node24 -->
<g id="edge57" class="edge">
<title>Node30&#45;&gt;Node24</title>
<path fill="none" stroke="midnightblue" d="M1350.86,-210.6C1437.29,-199.43 1649.61,-172 1754.82,-158.4"/>
<polygon fill="midnightblue" stroke="midnightblue" points="1350.19,-207.16 1340.72,-211.91 1351.09,-214.1 1350.19,-207.16"/>
</g>
<!-- Node30&#45;&gt;Node25 -->
<g id="edge56" class="edge">
<title>Node30&#45;&gt;Node25</title>
<path fill="none" stroke="midnightblue" d="M1343.86,-203.37C1389.71,-185.79 1478.78,-153.23 1556.96,-134 1654.45,-110.02 1681.85,-119.28 1779.96,-98 1787.79,-96.3 1796.19,-94.16 1803.94,-92.04"/>
<polygon fill="midnightblue" stroke="midnightblue" points="1342.55,-200.12 1334.48,-206.99 1345.07,-206.66 1342.55,-200.12"/>
</g>
<!-- Node30&#45;&gt;Node29 -->
<g id="edge55" class="edge">
<title>Node30&#45;&gt;Node29</title>
<path fill="none" stroke="midnightblue" d="M1350.53,-207.65C1409.26,-195.37 1522.38,-171.73 1583.09,-159.04"/>
<polygon fill="midnightblue" stroke="midnightblue" points="1349.63,-204.26 1340.56,-209.73 1351.06,-211.11 1349.63,-204.26"/>
</g>
<!-- Node31 -->
<g id="node31" class="node">
<title>Node31</title>
<g id="a_node31"><a xlink:href="env.html" target="_top" xlink:title="Environment interface.">
<polygon fill="white" stroke="black" points="1283.46,-140 1283.46,-159 1342.46,-159 1342.46,-140 1283.46,-140"/>
<text text-anchor="middle" x="1312.96" y="-147" font-family="Helvetica,sans-Serif" font-size="10.00">l4/re/env</text>
</a>
</g>
</g>
<!-- Node30&#45;&gt;Node31 -->
<g id="edge40" class="edge">
<title>Node30&#45;&gt;Node31</title>
<path fill="none" stroke="midnightblue" d="M1312.96,-196.54C1312.96,-184.17 1312.96,-168.62 1312.96,-159.13"/>
<polygon fill="midnightblue" stroke="midnightblue" points="1309.46,-196.73 1312.96,-206.73 1316.46,-196.73 1309.46,-196.73"/>
</g>
<!-- Node37 -->
<g id="node37" class="node">
<title>Node37</title>
<g id="a_node37"><a xlink:href="region__mapping.html" target="_top" xlink:title="Region handling.">
<polygon fill="white" stroke="black" points="1047.46,-140 1047.46,-159 1186.46,-159 1186.46,-140 1047.46,-140"/>
<text text-anchor="middle" x="1116.96" y="-147" font-family="Helvetica,sans-Serif" font-size="10.00">l4/re/util/region_mapping</text>
</a>
</g>
</g>
<!-- Node30&#45;&gt;Node37 -->
<g id="edge58" class="edge">
<title>Node30&#45;&gt;Node37</title>
<path fill="none" stroke="midnightblue" d="M1277.08,-203.6C1238.22,-190.71 1177.19,-170.47 1142.78,-159.06"/>
<polygon fill="midnightblue" stroke="midnightblue" points="1276.34,-207.04 1286.93,-206.87 1278.54,-200.4 1276.34,-207.04"/>
</g>
<!-- Node38 -->
<g id="node38" class="node">
<title>Node38</title>
<g id="a_node38"><a xlink:href="region__mapping__svr__2_source.html" target="_top" xlink:title=" ">
<polygon fill="white" stroke="black" points="860.46,-67.5 860.46,-97.5 999.46,-97.5 999.46,-67.5 860.46,-67.5"/>
<text text-anchor="start" x="868.46" y="-85.5" font-family="Helvetica,sans-Serif" font-size="10.00">l4/re/util/region_mapping</text>
<text text-anchor="middle" x="929.96" y="-74.5" font-family="Helvetica,sans-Serif" font-size="10.00">_svr_2</text>
</a>
</g>
</g>
<!-- Node30&#45;&gt;Node38 -->
<g id="edge60" class="edge">
<title>Node30&#45;&gt;Node38</title>
<path fill="none" stroke="midnightblue" d="M1295.66,-200.03C1273.81,-181.37 1234.29,-150.46 1194.96,-134 1185.9,-130.21 1074.93,-109.7 999.49,-96.01"/>
<polygon fill="midnightblue" stroke="midnightblue" points="1293.55,-202.83 1303.39,-206.76 1298.14,-197.55 1293.55,-202.83"/>
</g>
<!-- Node31&#45;&gt;Node2 -->
<g id="edge42" class="edge">
<title>Node31&#45;&gt;Node2</title>
<path fill="none" stroke="midnightblue" d="M1345.78,-135.65C1361.88,-127.48 1379.76,-115.16 1388.96,-98 1400.95,-75.63 1384.47,-47.28 1371.89,-30.59"/>
<polygon fill="midnightblue" stroke="midnightblue" points="1344.13,-132.56 1336.58,-139.99 1347.11,-138.89 1344.13,-132.56"/>
</g>
<!-- Node31&#45;&gt;Node4 -->
<g id="edge43" class="edge">
<title>Node31&#45;&gt;Node4</title>
<path fill="none" stroke="midnightblue" d="M1273.37,-143.45C1250.47,-140.58 1221.1,-136.97 1194.96,-134 1042.22,-116.62 1002.29,-125.02 850.96,-98 848.25,-97.52 845.47,-96.97 842.68,-96.39"/>
<polygon fill="midnightblue" stroke="midnightblue" points="1273.04,-146.94 1283.4,-144.72 1273.91,-140 1273.04,-146.94"/>
</g>
<!-- Node31&#45;&gt;Node7 -->
<g id="edge46" class="edge">
<title>Node31&#45;&gt;Node7</title>
<path fill="none" stroke="midnightblue" d="M1273.41,-140.94C1261.67,-138.71 1248.8,-136.25 1236.96,-134 1152.53,-117.95 1125.1,-133.78 1046.96,-98 1026.83,-88.78 1028.63,-74.93 1007.96,-67 885.95,-20.18 551.34,-39.97 420.96,-31 375.58,-27.88 324.13,-23.93 286.23,-20.94"/>
<polygon fill="midnightblue" stroke="midnightblue" points="1272.89,-144.41 1283.37,-142.84 1274.2,-137.53 1272.89,-144.41"/>
</g>
<!-- Node31&#45;&gt;Node12 -->
<g id="edge44" class="edge">
<title>Node31&#45;&gt;Node12</title>
<path fill="none" stroke="midnightblue" d="M1290.96,-134.2C1275.7,-124.21 1254.97,-110.47 1236.96,-98 1217.59,-84.59 1216.02,-75.27 1193.96,-67 1031.79,-6.22 976.85,-59.1 805.96,-31 803.27,-30.56 800.53,-30.06 797.77,-29.53"/>
<polygon fill="midnightblue" stroke="midnightblue" points="1289.39,-137.36 1299.68,-139.89 1293.22,-131.49 1289.39,-137.36"/>
</g>
<!-- Node31&#45;&gt;Node14 -->
<g id="edge45" class="edge">
<title>Node31&#45;&gt;Node14</title>
<path fill="none" stroke="midnightblue" d="M1276.09,-136.52C1251.74,-127.75 1219.7,-114.51 1193.96,-98 1176.75,-86.96 1178.74,-75.1 1159.96,-67 1062.35,-24.89 788.18,-46.12 682.96,-31 680.21,-30.61 677.41,-30.16 674.58,-29.69"/>
<polygon fill="midnightblue" stroke="midnightblue" points="1275.09,-139.88 1285.68,-139.89 1277.41,-133.27 1275.09,-139.88"/>
</g>
<!-- Node31&#45;&gt;Node25 -->
<g id="edge49" class="edge">
<title>Node31&#45;&gt;Node25</title>
<path fill="none" stroke="midnightblue" d="M1352.97,-144.54C1458.38,-134.06 1738.47,-105.87 1779.96,-98 1788.21,-96.44 1797.05,-94.23 1805.1,-92.02"/>
<polygon fill="midnightblue" stroke="midnightblue" points="1352.35,-141.09 1342.75,-145.56 1353.04,-148.05 1352.35,-141.09"/>
</g>
<!-- Node32 -->
<g id="node32" class="node">
<title>Node32</title>
<g id="a_node32"><a xlink:href="vcpu_source.html" target="_top" xlink:title=" ">
<polygon fill="white" stroke="black" points="1435.96,-73 1435.96,-92 1513.96,-92 1513.96,-73 1435.96,-73"/>
<text text-anchor="middle" x="1474.96" y="-80" font-family="Helvetica,sans-Serif" font-size="10.00">l4/vcpu/vcpu</text>
</a>
</g>
</g>
<!-- Node31&#45;&gt;Node32 -->
<g id="edge41" class="edge">
<title>Node31&#45;&gt;Node32</title>
<path fill="none" stroke="midnightblue" d="M1343.85,-136.1C1376.02,-123.2 1425.54,-103.33 1453.62,-92.06"/>
<polygon fill="midnightblue" stroke="midnightblue" points="1342.45,-132.9 1334.47,-139.87 1345.06,-139.39 1342.45,-132.9"/>
</g>
<!-- Node33 -->
<g id="node33" class="node">
<title>Node33</title>
<g id="a_node33"><a xlink:href="env__ns_source.html" target="_top" xlink:title=" ">
<polygon fill="white" stroke="black" points="1056.46,-73 1056.46,-92 1151.46,-92 1151.46,-73 1056.46,-73"/>
<text text-anchor="middle" x="1103.96" y="-80" font-family="Helvetica,sans-Serif" font-size="10.00">l4/re/util/env_ns</text>
</a>
</g>
</g>
<!-- Node31&#45;&gt;Node33 -->
<g id="edge47" class="edge">
<title>Node31&#45;&gt;Node33</title>
<path fill="none" stroke="midnightblue" d="M1275.49,-136.85C1234.09,-123.97 1168.41,-103.55 1131.5,-92.06"/>
<polygon fill="midnightblue" stroke="midnightblue" points="1274.62,-140.24 1285.21,-139.87 1276.7,-133.56 1274.62,-140.24"/>
</g>
<!-- Node34 -->
<g id="node34" class="node">
<title>Node34</title>
<g id="a_node34"><a xlink:href="icu__svr_source.html" target="_top" xlink:title=" ">
<polygon fill="white" stroke="black" points="1675.46,-73 1675.46,-92 1770.46,-92 1770.46,-73 1675.46,-73"/>
<text text-anchor="middle" x="1722.96" y="-80" font-family="Helvetica,sans-Serif" font-size="10.00">l4/re/util/icu_svr</text>
</a>
</g>
</g>
<!-- Node31&#45;&gt;Node34 -->
<g id="edge50" class="edge">
<title>Node31&#45;&gt;Node34</title>
<path fill="none" stroke="midnightblue" d="M1352.85,-144.28C1418.66,-136.99 1553.94,-120.62 1666.96,-98 1675.33,-96.32 1684.32,-94.16 1692.59,-92.02"/>
<polygon fill="midnightblue" stroke="midnightblue" points="1352.08,-140.84 1342.52,-145.41 1352.84,-147.8 1352.08,-140.84"/>
</g>
<!-- Node35 -->
<g id="node35" class="node">
<title>Node35</title>
<g id="a_node35"><a xlink:href="kumem__alloc.html" target="_top" xlink:title="Kumem allocator helper.">
<polygon fill="white" stroke="black" points="1532.46,-73 1532.46,-92 1657.46,-92 1657.46,-73 1532.46,-73"/>
<text text-anchor="middle" x="1594.96" y="-80" font-family="Helvetica,sans-Serif" font-size="10.00">l4/re/util/kumem_alloc</text>
</a>
</g>
</g>
<!-- Node31&#45;&gt;Node35 -->
<g id="edge52" class="edge">
<title>Node31&#45;&gt;Node35</title>
<path fill="none" stroke="midnightblue" d="M1352.59,-139.37C1407.1,-126.8 1504.51,-104.35 1557.73,-92.08"/>
<polygon fill="midnightblue" stroke="midnightblue" points="1351.56,-136.01 1342.61,-141.67 1353.14,-142.83 1351.56,-136.01"/>
</g>
<!-- Node36 -->
<g id="node36" class="node">
<title>Node36</title>
<g id="a_node36"><a xlink:href="object__registry_source.html" target="_top" xlink:title=" ">
<polygon fill="white" stroke="black" points="1246.46,-73 1246.46,-92 1379.46,-92 1379.46,-73 1246.46,-73"/>
<text text-anchor="middle" x="1312.96" y="-80" font-family="Helvetica,sans-Serif" font-size="10.00">l4/re/util/object_registry</text>
</a>
</g>
</g>
<!-- Node31&#45;&gt;Node36 -->
<g id="edge53" class="edge">
<title>Node31&#45;&gt;Node36</title>
<path fill="none" stroke="midnightblue" d="M1312.96,-129.54C1312.96,-117.17 1312.96,-101.62 1312.96,-92.13"/>
<polygon fill="midnightblue" stroke="midnightblue" points="1309.46,-129.73 1312.96,-139.73 1316.46,-129.73 1309.46,-129.73"/>
</g>
<!-- Node33&#45;&gt;Node6 -->
<g id="edge48" class="edge">
<title>Node33&#45;&gt;Node6</title>
<path fill="none" stroke="midnightblue" d="M1061.58,-70.66C1055.04,-69.25 1048.34,-67.97 1041.96,-67 823.45,-33.73 764.47,-64.27 545.96,-31 543.23,-30.58 540.44,-30.11 537.63,-29.6"/>
<polygon fill="midnightblue" stroke="midnightblue" points="1061.12,-74.14 1071.65,-72.93 1062.66,-67.31 1061.12,-74.14"/>
</g>
<!-- Node34&#45;&gt;Node26 -->
<g id="edge51" class="edge">
<title>Node34&#45;&gt;Node26</title>
<path fill="none" stroke="midnightblue" d="M1746.46,-67.62C1768.25,-54.74 1800,-35.98 1818.36,-25.13"/>
<polygon fill="midnightblue" stroke="midnightblue" points="1744.62,-64.63 1737.79,-72.73 1748.18,-70.66 1744.62,-64.63"/>
</g>
<!-- Node36&#45;&gt;Node2 -->
<g id="edge54" class="edge">
<title>Node36&#45;&gt;Node2</title>
<path fill="none" stroke="midnightblue" d="M1325.36,-64.35C1332.97,-53.82 1342.6,-40.5 1349.77,-30.59"/>
<polygon fill="midnightblue" stroke="midnightblue" points="1322.32,-62.58 1319.3,-72.73 1327.99,-66.68 1322.32,-62.58"/>
</g>
<!-- Node37&#45;&gt;Node38 -->
<g id="edge59" class="edge">
<title>Node37&#45;&gt;Node38</title>
<path fill="none" stroke="midnightblue" d="M1082.41,-136.49C1050.7,-125.47 1003.73,-109.14 970.32,-97.53"/>
<polygon fill="midnightblue" stroke="midnightblue" points="1081.53,-139.89 1092.13,-139.87 1083.83,-133.28 1081.53,-139.89"/>
</g>
<!-- Node41&#45;&gt;Node23 -->
<g id="edge64" class="edge">
<title>Node41&#45;&gt;Node23</title>
<path fill="none" stroke="midnightblue" d="M2209.32,-202.27C2184.37,-189.4 2147.16,-170.21 2125.76,-159.17"/>
<polygon fill="midnightblue" stroke="midnightblue" points="2207.74,-205.39 2218.23,-206.87 2210.95,-199.17 2207.74,-205.39"/>
</g>
<!-- Node41&#45;&gt;Node40 -->
<g id="edge66" class="edge">
<title>Node41&#45;&gt;Node40</title>
<path fill="none" stroke="midnightblue" d="M2234.67,-196.54C2234.48,-184.17 2234.24,-168.62 2234.09,-159.13"/>
<polygon fill="midnightblue" stroke="midnightblue" points="2231.17,-196.79 2234.82,-206.73 2238.17,-196.68 2231.17,-196.79"/>
</g>
<!-- Node42 -->
<g id="node42" class="node">
<title>Node42</title>
<g id="a_node42"><a xlink:href="goos__fb_source.html" target="_top" xlink:title=" ">
<polygon fill="white" stroke="black" points="2318.96,-140 2318.96,-159 2446.96,-159 2446.96,-140 2318.96,-140"/>
<text text-anchor="middle" x="2382.96" y="-147" font-family="Helvetica,sans-Serif" font-size="10.00">l4/re/util/video/goos_fb</text>
</a>
</g>
</g>
<!-- Node41&#45;&gt;Node42 -->
<g id="edge65" class="edge">
<title>Node41&#45;&gt;Node42</title>
<path fill="none" stroke="midnightblue" d="M2263.92,-202.78C2293.23,-189.91 2337.75,-170.35 2363.23,-159.17"/>
<polygon fill="midnightblue" stroke="midnightblue" points="2262.36,-199.64 2254.61,-206.87 2265.18,-206.05 2262.36,-199.64"/>
</g>
<!-- Node43 -->
<g id="node43" class="node">
<title>Node43</title>
<g id="a_node43"><a xlink:href="view_source.html" target="_top" xlink:title=" ">
<polygon fill="white" stroke="black" points="2465.46,-140 2465.46,-159 2560.46,-159 2560.46,-140 2465.46,-140"/>
<text text-anchor="middle" x="2512.96" y="-147" font-family="Helvetica,sans-Serif" font-size="10.00">l4/re/video/view</text>
</a>
</g>
</g>
<!-- Node41&#45;&gt;Node43 -->
<g id="edge67" class="edge">
<title>Node41&#45;&gt;Node43</title>
<path fill="none" stroke="midnightblue" d="M2277.59,-204.49C2282.43,-203.29 2287.3,-202.1 2291.96,-201 2364.57,-183.8 2383.34,-182.2 2455.96,-165 2463.81,-163.14 2472.24,-161.05 2480.15,-159.04"/>
<polygon fill="midnightblue" stroke="midnightblue" points="2276.62,-201.13 2267.77,-206.96 2278.32,-207.92 2276.62,-201.13"/>
</g>
</g>
</svg>
