<?xml version="1.0" encoding="UTF-8" standalone="no"?>
<!DOCTYPE svg PUBLIC "-//W3C//DTD SVG 1.1//EN"
 "http://www.w3.org/Graphics/SVG/1.1/DTD/svg11.dtd">
<!-- Generated by graphviz version 2.43.0 (0)
 -->
<!-- Title: l4 Pages: 1 -->
<svg width="502pt" height="364pt"
 viewBox="0.00 0.00 502.00 364.00" xmlns="http://www.w3.org/2000/svg" xmlns:xlink="http://www.w3.org/1999/xlink">
<g id="graph0" class="graph" transform="scale(1 1) rotate(0) translate(4 360)">
<title>l4</title>
<polygon fill="white" stroke="transparent" points="-4,4 -4,-360 498,-360 498,4 -4,4"/>
<g id="clust1" class="cluster">
<title>clusterdir_1f581fa1f88782a0973f05f5fe437b46</title>
<g id="a_clust1"><a xlink:href="dir_1f581fa1f88782a0973f05f5fe437b46.html" target="_top">
<polygon fill="#eeeeff" stroke="black" points="8,-8 8,-348 486,-348 486,-8 8,-8"/>
</a>
</g>
</g>
<!-- dir_1f581fa1f88782a0973f05f5fe437b46 -->
<g id="node1" class="node">
<title>dir_1f581fa1f88782a0973f05f5fe437b46</title>
<text text-anchor="middle" x="392" y="-319.5" font-family="Helvetica,sans-Serif" font-size="10.00">l4</text>
</g>
<!-- dir_dd3580c6b729ef0dd2be01098f8e55ee -->
<g id="node2" class="node">
<title>dir_dd3580c6b729ef0dd2be01098f8e55ee</title>
<g id="a_node2"><a xlink:href="dir_dd3580c6b729ef0dd2be01098f8e55ee.html" target="_top" xlink:title="cxx">
<polygon fill="white" stroke="red" points="154,-196 100,-196 100,-160 154,-160 154,-196"/>
<text text-anchor="middle" x="127" y="-175.5" font-family="Helvetica,sans-Serif" font-size="10.00">cxx</text>
</a>
</g>
</g>
<!-- dir_d458d878e154568f8572c436e514c759 -->
<g id="node10" class="node">
<title>dir_d458d878e154568f8572c436e514c759</title>
<g id="a_node10"><a xlink:href="dir_d458d878e154568f8572c436e514c759.html" target="_top" xlink:title="sys">
<polygon fill="white" stroke="red" points="222,-52 168,-52 168,-16 222,-16 222,-52"/>
<text text-anchor="middle" x="195" y="-31.5" font-family="Helvetica,sans-Serif" font-size="10.00">sys</text>
</a>
</g>
</g>
<!-- dir_dd3580c6b729ef0dd2be01098f8e55ee&#45;&gt;dir_d458d878e154568f8572c436e514c759 -->
<g id="edge5" class="edge">
<title>dir_dd3580c6b729ef0dd2be01098f8e55ee&#45;&gt;dir_d458d878e154568f8572c436e514c759</title>
<path fill="none" stroke="black" d="M109.52,-159.91C92.86,-141.47 72.31,-111.58 87,-88 102.44,-63.23 133.2,-49.71 157.96,-42.54"/>
<polygon fill="black" stroke="black" points="159.03,-45.87 167.8,-39.92 157.23,-39.11 159.03,-45.87"/>
<g id="a_edge5&#45;headlabel"><a xlink:href="dir_000062_000065.html" target="_top" xlink:title="16">
<text text-anchor="middle" x="156.29" y="-47.04" font-family="Helvetica,sans-Serif" font-size="10.00">16</text>
</a>
</g>
</g>
<!-- dir_b080fbfc44463f036af256b25228453b -->
<g id="node11" class="node">
<title>dir_b080fbfc44463f036af256b25228453b</title>
<g id="a_node11"><a xlink:href="dir_b080fbfc44463f036af256b25228453b.html" target="_top" xlink:title="util">
<polygon fill="white" stroke="black" points="150,-124 96,-124 96,-88 150,-88 150,-124"/>
<text text-anchor="middle" x="123" y="-103.5" font-family="Helvetica,sans-Serif" font-size="10.00">util</text>
</a>
</g>
</g>
<!-- dir_dd3580c6b729ef0dd2be01098f8e55ee&#45;&gt;dir_b080fbfc44463f036af256b25228453b -->
<g id="edge4" class="edge">
<title>dir_dd3580c6b729ef0dd2be01098f8e55ee&#45;&gt;dir_b080fbfc44463f036af256b25228453b</title>
<path fill="none" stroke="black" d="M126.01,-159.7C125.57,-151.98 125.04,-142.71 124.55,-134.11"/>
<polygon fill="black" stroke="black" points="128.04,-133.89 123.98,-124.1 121.05,-134.29 128.04,-133.89"/>
<g id="a_edge4&#45;headlabel"><a xlink:href="dir_000062_000040.html" target="_top" xlink:title="2">
<text text-anchor="middle" x="131.08" y="-134.82" font-family="Helvetica,sans-Serif" font-size="10.00">2</text>
</a>
</g>
</g>
<!-- dir_df12a0752bdaa80729fd074dc7c2f44a -->
<g id="node3" class="node">
<title>dir_df12a0752bdaa80729fd074dc7c2f44a</title>
<g id="a_node3"><a xlink:href="dir_df12a0752bdaa80729fd074dc7c2f44a.html" target="_top" xlink:title="irq">
<polygon fill="white" stroke="black" points="478,-124 424,-124 424,-88 478,-88 478,-124"/>
<text text-anchor="middle" x="451" y="-103.5" font-family="Helvetica,sans-Serif" font-size="10.00">irq</text>
</a>
</g>
</g>
<!-- dir_df12a0752bdaa80729fd074dc7c2f44a&#45;&gt;dir_d458d878e154568f8572c436e514c759 -->
<g id="edge6" class="edge">
<title>dir_df12a0752bdaa80729fd074dc7c2f44a&#45;&gt;dir_d458d878e154568f8572c436e514c759</title>
<path fill="none" stroke="black" d="M423.87,-93.08C419.28,-91.26 414.54,-89.49 410,-88 348.76,-67.88 275.51,-51.38 232.25,-42.39"/>
<polygon fill="black" stroke="black" points="232.68,-38.91 222.18,-40.32 231.28,-45.76 232.68,-38.91"/>
<g id="a_edge6&#45;headlabel"><a xlink:href="dir_000064_000065.html" target="_top" xlink:title="2">
<text text-anchor="middle" x="236.78" y="-34.35" font-family="Helvetica,sans-Serif" font-size="10.00">2</text>
</a>
</g>
</g>
<!-- dir_23b146a426e7ed970afb9c6da946d6da -->
<g id="node4" class="node">
<title>dir_23b146a426e7ed970afb9c6da946d6da</title>
<g id="a_node4"><a xlink:href="dir_23b146a426e7ed970afb9c6da946d6da.html" target="_top" xlink:title="l4re_vfs">
<polygon fill="white" stroke="red" points="288,-340 232,-340 232,-304 288,-304 288,-340"/>
<text text-anchor="middle" x="260" y="-319.5" font-family="Helvetica,sans-Serif" font-size="10.00">l4re_vfs</text>
</a>
</g>
</g>
<!-- dir_23b146a426e7ed970afb9c6da946d6da&#45;&gt;dir_dd3580c6b729ef0dd2be01098f8e55ee -->
<g id="edge15" class="edge">
<title>dir_23b146a426e7ed970afb9c6da946d6da&#45;&gt;dir_dd3580c6b729ef0dd2be01098f8e55ee</title>
<path fill="none" stroke="black" d="M243.96,-303.87C220.59,-278.92 177.06,-232.45 150.2,-203.77"/>
<polygon fill="black" stroke="black" points="152.49,-201.1 143.1,-196.19 147.38,-205.88 152.49,-201.1"/>
<g id="a_edge15&#45;headlabel"><a xlink:href="dir_000066_000062.html" target="_top" xlink:title="2">
<text text-anchor="middle" x="157.02" y="-199.28" font-family="Helvetica,sans-Serif" font-size="10.00">2</text>
</a>
</g>
</g>
<!-- dir_30d77a5207eb89e366a23f343e13fefd -->
<g id="node7" class="node">
<title>dir_30d77a5207eb89e366a23f343e13fefd</title>
<g id="a_node7"><a xlink:href="dir_30d77a5207eb89e366a23f343e13fefd.html" target="_top" xlink:title="re">
<polygon fill="white" stroke="red" points="113,-268 59,-268 59,-232 113,-232 113,-268"/>
<text text-anchor="middle" x="86" y="-247.5" font-family="Helvetica,sans-Serif" font-size="10.00">re</text>
</a>
</g>
</g>
<!-- dir_23b146a426e7ed970afb9c6da946d6da&#45;&gt;dir_30d77a5207eb89e366a23f343e13fefd -->
<g id="edge13" class="edge">
<title>dir_23b146a426e7ed970afb9c6da946d6da&#45;&gt;dir_30d77a5207eb89e366a23f343e13fefd</title>
<path fill="none" stroke="black" d="M231.8,-307.83C228.84,-306.51 225.87,-305.21 223,-304 189.42,-289.81 150.63,-274.94 122.91,-264.58"/>
<polygon fill="black" stroke="black" points="123.82,-261.18 113.23,-260.97 121.38,-267.74 123.82,-261.18"/>
<g id="a_edge13&#45;headlabel"><a xlink:href="dir_000066_000072.html" target="_top" xlink:title="12">
<text text-anchor="middle" x="128.18" y="-257.27" font-family="Helvetica,sans-Serif" font-size="10.00">12</text>
</a>
</g>
</g>
<!-- dir_23b146a426e7ed970afb9c6da946d6da&#45;&gt;dir_d458d878e154568f8572c436e514c759 -->
<g id="edge14" class="edge">
<title>dir_23b146a426e7ed970afb9c6da946d6da&#45;&gt;dir_d458d878e154568f8572c436e514c759</title>
<path fill="none" stroke="black" d="M282.46,-303.86C332.26,-263.8 443.23,-161.86 387,-88 368.37,-63.53 282.96,-47.48 232.55,-39.96"/>
<polygon fill="black" stroke="black" points="232.76,-36.46 222.36,-38.49 231.75,-43.38 232.76,-36.46"/>
<g id="a_edge14&#45;headlabel"><a xlink:href="dir_000066_000065.html" target="_top" xlink:title="7">
<text text-anchor="middle" x="236.72" y="-31.66" font-family="Helvetica,sans-Serif" font-size="10.00">7</text>
</a>
</g>
</g>
<!-- dir_c7ab25baedb6fe17d19f630d386cbc03 -->
<g id="node5" class="node">
<title>dir_c7ab25baedb6fe17d19f630d386cbc03</title>
<g id="a_node5"><a xlink:href="dir_c7ab25baedb6fe17d19f630d386cbc03.html" target="_top" xlink:title="l4virtio">
<polygon fill="white" stroke="red" points="214,-340 160,-340 160,-304 214,-304 214,-340"/>
<text text-anchor="middle" x="187" y="-319.5" font-family="Helvetica,sans-Serif" font-size="10.00">l4virtio</text>
</a>
</g>
</g>
<!-- dir_c7ab25baedb6fe17d19f630d386cbc03&#45;&gt;dir_dd3580c6b729ef0dd2be01098f8e55ee -->
<g id="edge19" class="edge">
<title>dir_c7ab25baedb6fe17d19f630d386cbc03&#45;&gt;dir_dd3580c6b729ef0dd2be01098f8e55ee</title>
<path fill="none" stroke="black" d="M179.76,-303.87C169.45,-279.46 150.42,-234.43 138.25,-205.64"/>
<polygon fill="black" stroke="black" points="141.38,-204.04 134.26,-196.19 134.93,-206.76 141.38,-204.04"/>
<g id="a_edge19&#45;headlabel"><a xlink:href="dir_000068_000062.html" target="_top" xlink:title="2">
<text text-anchor="middle" x="145.39" y="-203.74" font-family="Helvetica,sans-Serif" font-size="10.00">2</text>
</a>
</g>
</g>
<!-- dir_c7ab25baedb6fe17d19f630d386cbc03&#45;&gt;dir_30d77a5207eb89e366a23f343e13fefd -->
<g id="edge16" class="edge">
<title>dir_c7ab25baedb6fe17d19f630d386cbc03&#45;&gt;dir_30d77a5207eb89e366a23f343e13fefd</title>
<path fill="none" stroke="black" d="M162.29,-303.88C149.33,-294.89 133.27,-283.76 119.23,-274.03"/>
<polygon fill="black" stroke="black" points="121.02,-271.01 110.8,-268.19 117.03,-276.76 121.02,-271.01"/>
<g id="a_edge16&#45;headlabel"><a xlink:href="dir_000068_000072.html" target="_top" xlink:title="13">
<text text-anchor="middle" x="125.59" y="-268.22" font-family="Helvetica,sans-Serif" font-size="10.00">13</text>
</a>
</g>
</g>
<!-- dir_c7ab25baedb6fe17d19f630d386cbc03&#45;&gt;dir_d458d878e154568f8572c436e514c759 -->
<g id="edge18" class="edge">
<title>dir_c7ab25baedb6fe17d19f630d386cbc03&#45;&gt;dir_d458d878e154568f8572c436e514c759</title>
<path fill="none" stroke="black" d="M214.01,-307.1C279.87,-271.41 438.82,-173.32 375,-88 357.87,-65.09 279.53,-48.67 232.03,-40.62"/>
<polygon fill="black" stroke="black" points="232.54,-37.16 222.11,-38.98 231.4,-44.06 232.54,-37.16"/>
<g id="a_edge18&#45;headlabel"><a xlink:href="dir_000068_000065.html" target="_top" xlink:title="15">
<text text-anchor="middle" x="236.55" y="-32.44" font-family="Helvetica,sans-Serif" font-size="10.00">15</text>
</a>
</g>
</g>
<!-- dir_c7ab25baedb6fe17d19f630d386cbc03&#45;&gt;dir_b080fbfc44463f036af256b25228453b -->
<g id="edge17" class="edge">
<title>dir_c7ab25baedb6fe17d19f630d386cbc03&#45;&gt;dir_b080fbfc44463f036af256b25228453b</title>
<path fill="none" stroke="black" d="M187.17,-303.81C186.9,-273.54 183.66,-209.25 163,-160 158.85,-150.11 152.44,-140.42 145.95,-132.07"/>
<polygon fill="black" stroke="black" points="148.57,-129.75 139.53,-124.23 143.16,-134.18 148.57,-129.75"/>
<g id="a_edge17&#45;headlabel"><a xlink:href="dir_000068_000040.html" target="_top" xlink:title="2">
<text text-anchor="middle" x="153.05" y="-128.23" font-family="Helvetica,sans-Serif" font-size="10.00">2</text>
</a>
</g>
</g>
<!-- dir_d1b90b3109432465c80e270fbf540d28 -->
<g id="node6" class="node">
<title>dir_d1b90b3109432465c80e270fbf540d28</title>
<g id="a_node6"><a xlink:href="dir_d1b90b3109432465c80e270fbf540d28.html" target="_top" xlink:title="libedid">
<polygon fill="white" stroke="black" points="366,-124 312,-124 312,-88 366,-88 366,-124"/>
<text text-anchor="middle" x="339" y="-103.5" font-family="Helvetica,sans-Serif" font-size="10.00">libedid</text>
</a>
</g>
</g>
<!-- dir_d1b90b3109432465c80e270fbf540d28&#45;&gt;dir_d458d878e154568f8572c436e514c759 -->
<g id="edge7" class="edge">
<title>dir_d1b90b3109432465c80e270fbf540d28&#45;&gt;dir_d458d878e154568f8572c436e514c759</title>
<path fill="none" stroke="black" d="M311.91,-91.83C289.23,-80.81 256.64,-64.97 231.63,-52.81"/>
<polygon fill="black" stroke="black" points="232.98,-49.57 222.45,-48.35 229.92,-55.87 232.98,-49.57"/>
<g id="a_edge7&#45;headlabel"><a xlink:href="dir_000071_000065.html" target="_top" xlink:title="1">
<text text-anchor="middle" x="237.45" y="-46.09" font-family="Helvetica,sans-Serif" font-size="10.00">1</text>
</a>
</g>
</g>
<!-- dir_30d77a5207eb89e366a23f343e13fefd&#45;&gt;dir_dd3580c6b729ef0dd2be01098f8e55ee -->
<g id="edge2" class="edge">
<title>dir_30d77a5207eb89e366a23f343e13fefd&#45;&gt;dir_dd3580c6b729ef0dd2be01098f8e55ee</title>
<path fill="none" stroke="black" d="M96.13,-231.7C100.85,-223.64 106.56,-213.89 111.78,-204.98"/>
<polygon fill="black" stroke="black" points="114.95,-206.5 116.98,-196.1 108.91,-202.96 114.95,-206.5"/>
<g id="a_edge2&#45;headlabel"><a xlink:href="dir_000072_000062.html" target="_top" xlink:title="4">
<text text-anchor="middle" x="115.58" y="-208.54" font-family="Helvetica,sans-Serif" font-size="10.00">4</text>
</a>
</g>
</g>
<!-- dir_30d77a5207eb89e366a23f343e13fefd&#45;&gt;dir_d458d878e154568f8572c436e514c759 -->
<g id="edge1" class="edge">
<title>dir_30d77a5207eb89e366a23f343e13fefd&#45;&gt;dir_d458d878e154568f8572c436e514c759</title>
<path fill="none" stroke="black" d="M78.94,-231.81C67.26,-200.42 47.95,-132.89 77,-88 94.74,-60.58 130.4,-47.21 157.9,-40.78"/>
<polygon fill="black" stroke="black" points="158.93,-44.14 167.99,-38.63 157.48,-37.29 158.93,-44.14"/>
<g id="a_edge1&#45;headlabel"><a xlink:href="dir_000072_000065.html" target="_top" xlink:title="109">
<text text-anchor="middle" x="156.01" y="-45.16" font-family="Helvetica,sans-Serif" font-size="10.00">109</text>
</a>
</g>
</g>
<!-- dir_4720fcac3b01e025220c92790c02ac45 -->
<g id="node8" class="node">
<title>dir_4720fcac3b01e025220c92790c02ac45</title>
<g id="a_node8"><a xlink:href="dir_4720fcac3b01e025220c92790c02ac45.html" target="_top" xlink:title="shmc">
<polygon fill="white" stroke="black" points="294,-124 240,-124 240,-88 294,-88 294,-124"/>
<text text-anchor="middle" x="267" y="-103.5" font-family="Helvetica,sans-Serif" font-size="10.00">shmc</text>
</a>
</g>
</g>
<!-- dir_4720fcac3b01e025220c92790c02ac45&#45;&gt;dir_d458d878e154568f8572c436e514c759 -->
<g id="edge12" class="edge">
<title>dir_4720fcac3b01e025220c92790c02ac45&#45;&gt;dir_d458d878e154568f8572c436e514c759</title>
<path fill="none" stroke="black" d="M249.2,-87.7C240.4,-79.14 229.62,-68.66 220,-59.3"/>
<polygon fill="black" stroke="black" points="222.2,-56.57 212.59,-52.1 217.32,-61.58 222.2,-56.57"/>
<g id="a_edge12&#45;headlabel"><a xlink:href="dir_000081_000065.html" target="_top" xlink:title="2">
<text text-anchor="middle" x="226.76" y="-54.54" font-family="Helvetica,sans-Serif" font-size="10.00">2</text>
</a>
</g>
</g>
<!-- dir_11ec9eaccd0d5da5ddb1d321a08c42f0 -->
<g id="node9" class="node">
<title>dir_11ec9eaccd0d5da5ddb1d321a08c42f0</title>
<g id="a_node9"><a xlink:href="dir_11ec9eaccd0d5da5ddb1d321a08c42f0.html" target="_top" xlink:title="sigma0">
<polygon fill="white" stroke="black" points="222,-124 168,-124 168,-88 222,-88 222,-124"/>
<text text-anchor="middle" x="195" y="-103.5" font-family="Helvetica,sans-Serif" font-size="10.00">sigma0</text>
</a>
</g>
</g>
<!-- dir_11ec9eaccd0d5da5ddb1d321a08c42f0&#45;&gt;dir_d458d878e154568f8572c436e514c759 -->
<g id="edge8" class="edge">
<title>dir_11ec9eaccd0d5da5ddb1d321a08c42f0&#45;&gt;dir_d458d878e154568f8572c436e514c759</title>
<path fill="none" stroke="black" d="M195,-87.7C195,-79.98 195,-70.71 195,-62.11"/>
<polygon fill="black" stroke="black" points="198.5,-62.1 195,-52.1 191.5,-62.1 198.5,-62.1"/>
<g id="a_edge8&#45;headlabel"><a xlink:href="dir_000082_000065.html" target="_top" xlink:title="3">
<text text-anchor="middle" x="201.34" y="-63.2" font-family="Helvetica,sans-Serif" font-size="10.00">3</text>
</a>
</g>
</g>
<!-- dir_b080fbfc44463f036af256b25228453b&#45;&gt;dir_d458d878e154568f8572c436e514c759 -->
<g id="edge3" class="edge">
<title>dir_b080fbfc44463f036af256b25228453b&#45;&gt;dir_d458d878e154568f8572c436e514c759</title>
<path fill="none" stroke="black" d="M140.8,-87.7C149.6,-79.14 160.38,-68.66 170,-59.3"/>
<polygon fill="black" stroke="black" points="172.68,-61.58 177.41,-52.1 167.8,-56.57 172.68,-61.58"/>
<g id="a_edge3&#45;headlabel"><a xlink:href="dir_000040_000065.html" target="_top" xlink:title="28">
<text text-anchor="middle" x="172.08" y="-63.63" font-family="Helvetica,sans-Serif" font-size="10.00">28</text>
</a>
</g>
</g>
<!-- dir_364af192430b60ca4d316aa6a7cd95d2 -->
<g id="node12" class="node">
<title>dir_364af192430b60ca4d316aa6a7cd95d2</title>
<g id="a_node12"><a xlink:href="dir_364af192430b60ca4d316aa6a7cd95d2.html" target="_top" xlink:title="vbus">
<polygon fill="white" stroke="black" points="142,-340 88,-340 88,-304 142,-304 142,-340"/>
<text text-anchor="middle" x="115" y="-319.5" font-family="Helvetica,sans-Serif" font-size="10.00">vbus</text>
</a>
</g>
</g>
<!-- dir_364af192430b60ca4d316aa6a7cd95d2&#45;&gt;dir_dd3580c6b729ef0dd2be01098f8e55ee -->
<g id="edge11" class="edge">
<title>dir_364af192430b60ca4d316aa6a7cd95d2&#45;&gt;dir_dd3580c6b729ef0dd2be01098f8e55ee</title>
<path fill="none" stroke="black" d="M117.6,-303.85C119.08,-293.49 120.87,-280.01 122,-268 123.94,-247.33 125.22,-223.88 126,-206.24"/>
<polygon fill="black" stroke="black" points="129.5,-206.23 126.42,-196.09 122.51,-205.94 129.5,-206.23"/>
<g id="a_edge11&#45;headlabel"><a xlink:href="dir_000084_000062.html" target="_top" xlink:title="1">
<text text-anchor="middle" x="132.19" y="-207.44" font-family="Helvetica,sans-Serif" font-size="10.00">1</text>
</a>
</g>
</g>
<!-- dir_364af192430b60ca4d316aa6a7cd95d2&#45;&gt;dir_30d77a5207eb89e366a23f343e13fefd -->
<g id="edge9" class="edge">
<title>dir_364af192430b60ca4d316aa6a7cd95d2&#45;&gt;dir_30d77a5207eb89e366a23f343e13fefd</title>
<path fill="none" stroke="black" d="M107.83,-303.7C104.57,-295.81 100.63,-286.3 97,-277.55"/>
<polygon fill="black" stroke="black" points="100.15,-276 93.09,-268.1 93.68,-278.68 100.15,-276"/>
<g id="a_edge9&#45;headlabel"><a xlink:href="dir_000084_000072.html" target="_top" xlink:title="2">
<text text-anchor="middle" x="104.15" y="-275.74" font-family="Helvetica,sans-Serif" font-size="10.00">2</text>
</a>
</g>
</g>
<!-- dir_364af192430b60ca4d316aa6a7cd95d2&#45;&gt;dir_d458d878e154568f8572c436e514c759 -->
<g id="edge10" class="edge">
<title>dir_364af192430b60ca4d316aa6a7cd95d2&#45;&gt;dir_d458d878e154568f8572c436e514c759</title>
<path fill="none" stroke="black" d="M87.83,-306.7C73.74,-297.67 57.87,-284.57 50,-268 31.39,-228.81 -2.6,-172.34 59,-88 81.83,-56.74 125.83,-43.92 157.61,-38.66"/>
<polygon fill="black" stroke="black" points="158.49,-42.07 167.87,-37.15 157.47,-35.14 158.49,-42.07"/>
<g id="a_edge10&#45;headlabel"><a xlink:href="dir_000084_000065.html" target="_top" xlink:title="15">
<text text-anchor="middle" x="155.34" y="-42.9" font-family="Helvetica,sans-Serif" font-size="10.00">15</text>
</a>
</g>
</g>
<!-- dir_499f942adf6d1e36428e5905faf00190 -->
<g id="node13" class="node">
<title>dir_499f942adf6d1e36428e5905faf00190</title>
<g id="a_node13"><a xlink:href="dir_499f942adf6d1e36428e5905faf00190.html" target="_top" xlink:title="vcpu">
<polygon fill="white" stroke="black" points="70,-340 16,-340 16,-304 70,-304 70,-340"/>
<text text-anchor="middle" x="43" y="-319.5" font-family="Helvetica,sans-Serif" font-size="10.00">vcpu</text>
</a>
</g>
</g>
<!-- dir_499f942adf6d1e36428e5905faf00190&#45;&gt;dir_30d77a5207eb89e366a23f343e13fefd -->
<g id="edge20" class="edge">
<title>dir_499f942adf6d1e36428e5905faf00190&#45;&gt;dir_30d77a5207eb89e366a23f343e13fefd</title>
<path fill="none" stroke="black" d="M53.63,-303.7C58.63,-295.56 64.69,-285.69 70.21,-276.7"/>
<polygon fill="black" stroke="black" points="73.24,-278.46 75.49,-268.1 67.28,-274.79 73.24,-278.46"/>
<g id="a_edge20&#45;headlabel"><a xlink:href="dir_000085_000072.html" target="_top" xlink:title="1">
<text text-anchor="middle" x="73.78" y="-280.51" font-family="Helvetica,sans-Serif" font-size="10.00">1</text>
</a>
</g>
</g>
<!-- dir_499f942adf6d1e36428e5905faf00190&#45;&gt;dir_d458d878e154568f8572c436e514c759 -->
<g id="edge21" class="edge">
<title>dir_499f942adf6d1e36428e5905faf00190&#45;&gt;dir_d458d878e154568f8572c436e514c759</title>
<path fill="none" stroke="black" d="M35.32,-303.86C17.65,-261.55 -20.41,-151.01 33,-88 63.96,-51.48 120.49,-39.95 157.91,-36.41"/>
<polygon fill="black" stroke="black" points="158.23,-39.9 167.92,-35.61 157.67,-32.92 158.23,-39.9"/>
<g id="a_edge21&#45;headlabel"><a xlink:href="dir_000085_000065.html" target="_top" xlink:title="2">
<text text-anchor="middle" x="154.87" y="-40.51" font-family="Helvetica,sans-Serif" font-size="10.00">2</text>
</a>
</g>
</g>
</g>
</svg>
