<?xml version="1.0" encoding="UTF-8" standalone="no"?>
<!DOCTYPE svg PUBLIC "-//W3C//DTD SVG 1.1//EN"
 "http://www.w3.org/Graphics/SVG/1.1/DTD/svg11.dtd">
<!-- Generated by graphviz version 2.43.0 (0)
 -->
<!-- Title: Utility Functions Pages: 1 -->
<svg width="292pt" height="458pt"
 viewBox="0.00 0.00 292.00 457.50" xmlns="http://www.w3.org/2000/svg" xmlns:xlink="http://www.w3.org/1999/xlink">
<g id="graph0" class="graph" transform="scale(1 1) rotate(0) translate(4 453.5)">
<title>Utility Functions</title>
<polygon fill="white" stroke="transparent" points="-4,4 -4,-453.5 288,-453.5 288,4 -4,4"/>
<!-- Node5 -->
<g id="node1" class="node">
<title>Node5</title>
<g id="a_node1"><a xlink:href="group__l4util__parse__cmd.html" target="_top" xlink:title=" ">
<polygon fill="white" stroke="black" points="273.5,-449.5 142.5,-449.5 142.5,-419.5 273.5,-419.5 273.5,-449.5"/>
<text text-anchor="start" x="150.5" y="-437.5" font-family="Helvetica,sans-Serif" font-size="10.00">Comfortable Command</text>
<text text-anchor="middle" x="208" y="-426.5" font-family="Helvetica,sans-Serif" font-size="10.00"> Line Parsing</text>
</a>
</g>
</g>
<!-- Node12 -->
<g id="node2" class="node">
<title>Node12</title>
<g id="a_node2"><a xlink:href="group__l4util__random.html" target="_top" xlink:title=" ">
<polygon fill="white" stroke="black" points="276.5,-401 139.5,-401 139.5,-382 276.5,-382 276.5,-401"/>
<text text-anchor="middle" x="208" y="-389" font-family="Helvetica,sans-Serif" font-size="10.00">Random number support</text>
</a>
</g>
</g>
<!-- Node1 -->
<g id="node3" class="node">
<title>Node1</title>
<g id="a_node3"><a xlink:title="Utilities, generic file.">
<polygon fill="#bfbfbf" stroke="black" points="96,-231 0,-231 0,-212 96,-212 96,-231"/>
<text text-anchor="middle" x="48" y="-219" font-family="Helvetica,sans-Serif" font-size="10.00">Utility Functions</text>
</a>
</g>
</g>
<!-- Node1&#45;&gt;Node5 -->
<g id="edge4" class="edge">
<title>Node1&#45;&gt;Node5</title>
<path fill="none" stroke="black" d="M52.17,-241.28C59.35,-279.54 80.38,-364 132,-410.5 135.86,-413.98 140.23,-416.95 144.86,-419.49"/>
<polygon fill="black" stroke="black" points="55.61,-240.63 50.44,-231.38 48.72,-241.84 55.61,-240.63"/>
</g>
<!-- Node1&#45;&gt;Node12 -->
<g id="edge11" class="edge">
<title>Node1&#45;&gt;Node12</title>
<path fill="none" stroke="black" d="M53.99,-240.82C63.45,-273.43 87.17,-339.19 132,-373.5 136.47,-376.92 141.49,-379.7 146.76,-381.96"/>
<polygon fill="black" stroke="black" points="57.35,-239.84 51.32,-231.13 50.6,-241.7 57.35,-239.84"/>
</g>
<!-- Node11 -->
<g id="node4" class="node">
<title>Node11</title>
<g id="a_node4"><a xlink:href="group__l4util__thread.html" target="_top" xlink:title=" ">
<polygon fill="white" stroke="black" points="284,-364 132,-364 132,-345 284,-345 284,-364"/>
<text text-anchor="middle" x="208" y="-352" font-family="Helvetica,sans-Serif" font-size="10.00">Low&#45;Level Thread Functions</text>
</a>
</g>
</g>
<!-- Node1&#45;&gt;Node11 -->
<g id="edge10" class="edge">
<title>Node1&#45;&gt;Node11</title>
<path fill="none" stroke="black" d="M57.4,-240.47C69.85,-266.32 95.71,-312.17 132,-336.5 137.12,-339.93 142.82,-342.71 148.72,-344.96"/>
<polygon fill="black" stroke="black" points="60.54,-238.92 53.15,-231.33 54.19,-241.87 60.54,-238.92"/>
</g>
<!-- Node9 -->
<g id="node5" class="node">
<title>Node9</title>
<g id="a_node5"><a xlink:href="group__l4util__internal.html" target="_top" xlink:title=" ">
<polygon fill="white" stroke="black" points="259,-327 157,-327 157,-308 259,-308 259,-327"/>
<text text-anchor="middle" x="208" y="-315" font-family="Helvetica,sans-Serif" font-size="10.00">Internal functions</text>
</a>
</g>
</g>
<!-- Node1&#45;&gt;Node9 -->
<g id="edge8" class="edge">
<title>Node1&#45;&gt;Node9</title>
<path fill="none" stroke="black" d="M62.83,-239.03C77.93,-256.95 103.74,-284.24 132,-299.5 139.66,-303.63 148.26,-306.83 156.84,-309.3"/>
<polygon fill="black" stroke="black" points="65.37,-236.6 56.32,-231.08 59.95,-241.04 65.37,-236.6"/>
</g>
<!-- Node13 -->
<g id="node6" class="node">
<title>Node13</title>
<g id="a_node6"><a xlink:href="group__l4util__tsc.html" target="_top" xlink:title=" ">
<polygon fill="white" stroke="black" points="264.5,-290 151.5,-290 151.5,-271 264.5,-271 264.5,-290"/>
<text text-anchor="middle" x="208" y="-278" font-family="Helvetica,sans-Serif" font-size="10.00">Timestamp Counter</text>
</a>
</g>
</g>
<!-- Node1&#45;&gt;Node13 -->
<g id="edge12" class="edge">
<title>Node1&#45;&gt;Node13</title>
<path fill="none" stroke="black" d="M74.49,-235.94C90.58,-244.59 112.04,-255.28 132,-262.5 140.94,-265.73 150.69,-268.56 160.11,-270.95"/>
<polygon fill="black" stroke="black" points="76.13,-232.85 65.68,-231.13 72.77,-239 76.13,-232.85"/>
</g>
<!-- Node8 -->
<g id="node7" class="node">
<title>Node8</title>
<g id="a_node7"><a xlink:href="group__l4util__portio.html" target="_top" xlink:title=" ">
<polygon fill="white" stroke="black" points="256,-253 160,-253 160,-234 256,-234 256,-253"/>
<text text-anchor="middle" x="208" y="-241" font-family="Helvetica,sans-Serif" font-size="10.00">IA32 Port I/O API</text>
</a>
</g>
</g>
<!-- Node1&#45;&gt;Node8 -->
<g id="edge7" class="edge">
<title>Node1&#45;&gt;Node8</title>
<path fill="none" stroke="black" d="M106.53,-229.51C124.07,-231.95 143.14,-234.61 159.9,-236.94"/>
<polygon fill="black" stroke="black" points="106.79,-226.01 96.41,-228.1 105.83,-232.95 106.79,-226.01"/>
</g>
<!-- Node7 -->
<g id="node8" class="node">
<title>Node7</title>
<g id="a_node8"><a xlink:href="group__l4util__idt.html" target="_top" xlink:title=" ">
<polygon fill="white" stroke="black" points="275,-215.5 141,-215.5 141,-185.5 275,-185.5 275,-215.5"/>
<text text-anchor="start" x="149" y="-203.5" font-family="Helvetica,sans-Serif" font-size="10.00">Functions to manipulate</text>
<text text-anchor="middle" x="208" y="-192.5" font-family="Helvetica,sans-Serif" font-size="10.00"> the local IDT</text>
</a>
</g>
</g>
<!-- Node1&#45;&gt;Node7 -->
<g id="edge6" class="edge">
<title>Node1&#45;&gt;Node7</title>
<path fill="none" stroke="black" d="M106.48,-213.86C117.67,-212.37 129.49,-210.8 140.93,-209.28"/>
<polygon fill="black" stroke="black" points="105.86,-210.41 96.41,-215.2 106.78,-217.35 105.86,-210.41"/>
</g>
<!-- Node10 -->
<g id="node9" class="node">
<title>Node10</title>
<g id="a_node9"><a xlink:href="group__l4util__kip__api.html" target="_top" xlink:title=" ">
<polygon fill="white" stroke="black" points="277.5,-167 138.5,-167 138.5,-148 277.5,-148 277.5,-167"/>
<text text-anchor="middle" x="208" y="-155" font-family="Helvetica,sans-Serif" font-size="10.00">Kernel Interface Page API</text>
</a>
</g>
</g>
<!-- Node1&#45;&gt;Node10 -->
<g id="edge9" class="edge">
<title>Node1&#45;&gt;Node10</title>
<path fill="none" stroke="black" d="M72.84,-206.51C89.03,-196.85 111.2,-184.63 132,-176.5 141.38,-172.83 151.71,-169.69 161.61,-167.07"/>
<polygon fill="black" stroke="black" points="70.78,-203.66 64.05,-211.85 74.41,-209.65 70.78,-203.66"/>
</g>
<!-- Node2 -->
<g id="node10" class="node">
<title>Node2</title>
<g id="a_node10"><a xlink:href="group__l4util__atomic.html" target="_top" xlink:title=" ">
<polygon fill="white" stroke="black" points="263.5,-130 152.5,-130 152.5,-111 263.5,-111 263.5,-130"/>
<text text-anchor="middle" x="208" y="-118" font-family="Helvetica,sans-Serif" font-size="10.00">Atomic Instructions</text>
</a>
</g>
</g>
<!-- Node1&#45;&gt;Node2 -->
<g id="edge1" class="edge">
<title>Node1&#45;&gt;Node2</title>
<path fill="none" stroke="black" d="M62.24,-203.67C77.13,-184.89 103.06,-155.83 132,-139.5 138.9,-135.61 146.61,-132.5 154.38,-130.02"/>
<polygon fill="black" stroke="black" points="59.36,-201.68 56.02,-211.73 64.9,-205.95 59.36,-201.68"/>
</g>
<!-- Node3 -->
<g id="node11" class="node">
<title>Node3</title>
<g id="a_node11"><a xlink:href="group__l4util__bitops.html" target="_top" xlink:title=" ">
<polygon fill="white" stroke="black" points="256.5,-93 159.5,-93 159.5,-74 256.5,-74 256.5,-93"/>
<text text-anchor="middle" x="208" y="-81" font-family="Helvetica,sans-Serif" font-size="10.00">Bit Manipulation</text>
</a>
</g>
</g>
<!-- Node1&#45;&gt;Node3 -->
<g id="edge2" class="edge">
<title>Node1&#45;&gt;Node3</title>
<path fill="none" stroke="black" d="M57.08,-202.34C69.3,-175.75 95.05,-128.05 132,-102.5 140.07,-96.92 149.63,-92.98 159.18,-90.2"/>
<polygon fill="black" stroke="black" points="53.78,-201.15 52.93,-211.71 60.18,-203.98 53.78,-201.15"/>
</g>
<!-- Node4 -->
<g id="node12" class="node">
<title>Node4</title>
<g id="a_node12"><a xlink:href="group__l4util__cpu.html" target="_top" xlink:title=" ">
<polygon fill="white" stroke="black" points="269,-56 147,-56 147,-37 269,-37 269,-56"/>
<text text-anchor="middle" x="208" y="-44" font-family="Helvetica,sans-Serif" font-size="10.00">CPU related functions</text>
</a>
</g>
</g>
<!-- Node1&#45;&gt;Node4 -->
<g id="edge3" class="edge">
<title>Node1&#45;&gt;Node4</title>
<path fill="none" stroke="black" d="M53.88,-201.74C63.18,-168.38 86.67,-101.04 132,-65.5 136.97,-61.6 142.64,-58.5 148.59,-56.02"/>
<polygon fill="black" stroke="black" points="50.43,-201.09 51.26,-211.66 57.2,-202.88 50.43,-201.09"/>
</g>
<!-- Node6 -->
<g id="node13" class="node">
<title>Node6</title>
<g id="a_node13"><a xlink:href="group__l4util__elf.html" target="_top" xlink:title="Functions and types related to ELF binaries.">
<polygon fill="white" stroke="black" points="260,-19 156,-19 156,0 260,0 260,-19"/>
<text text-anchor="middle" x="208" y="-7" font-family="Helvetica,sans-Serif" font-size="10.00">ELF binary format</text>
</a>
</g>
</g>
<!-- Node1&#45;&gt;Node6 -->
<g id="edge5" class="edge">
<title>Node1&#45;&gt;Node6</title>
<path fill="none" stroke="black" d="M51.7,-201.57C58.1,-162.28 77.96,-74.61 132,-28.5 138.85,-22.66 147.25,-18.57 155.92,-15.73"/>
<polygon fill="black" stroke="black" points="48.2,-201.3 50.17,-211.71 55.12,-202.34 48.2,-201.3"/>
</g>
</g>
</svg>
